Rubik-Light.ufo
<glyph name="I" format="1">
  <advance width="251"/>
  <unicode hex="0049"/>
  <outline>
    <contour>
      <point x="135" y="0" type="line" smooth="yes"/>
      <point x="148" y="0"/>
      <point x="157" y="9"/>
      <point x="157" y="22" type="curve" smooth="yes"/>
      <point x="157" y="678" type="line" smooth="yes"/>
      <point x="157" y="691"/>
      <point x="148" y="700"/>
      <point x="135" y="700" type="curve" smooth="yes"/>
      <point x="116" y="700" type="line" smooth="yes"/>
      <point x="103" y="700"/>
      <point x="94" y="691"/>
      <point x="94" y="678" type="curve" smooth="yes"/>
      <point x="94" y="22" type="line" smooth="yes"/>
      <point x="94" y="9"/>
      <point x="103" y="0"/>
      <point x="116" y="0" type="curve" smooth="yes"/>
    </contour>
    <contour>
      <point x="226" y="10" type="move" name="ogonek"/>
    </contour>
    <contour>
      <point x="126" y="700" type="move" name="top"/>
    </contour>
    <contour>
      <point x="20" y="700" type="move" name="topleft"/>
    </contour>
    <contour>
      <point x="126" y="0" type="move" name="bottom"/>
    </contour>
  </outline>
</glyph>
<glyph name="braceright" format="1">
  <advance width="344"/>
  <unicode hex="007D"/>
  <outline>
    <contour>
      <point x="49" y="776" type="line" smooth="yes"/>
      <point x="36" y="776"/>
      <point x="27" y="767"/>
      <point x="27" y="754" type="curve" smooth="yes"/>
      <point x="27" y="740" type="line" smooth="yes"/>
      <point x="27" y="727"/>
      <point x="36" y="718"/>
      <point x="49" y="718" type="curve" smooth="yes"/>
      <point x="54" y="718" type="line" smooth="yes"/>
      <point x="157" y="717"/>
      <point x="161" y="644"/>
      <point x="161" y="465" type="curve" smooth="yes"/>
      <point x="161" y="387"/>
      <point x="184" y="339"/>
      <point x="236" y="308" type="curve"/>
      <point x="184" y="277"/>
      <point x="161" y="229"/>
      <point x="161" y="151" type="curve" smooth="yes"/>
      <point x="161" y="-28"/>
      <point x="157" y="-100"/>
      <point x="54" y="-101" type="curve" smooth="yes"/>
      <point x="49" y="-101" type="line" smooth="yes"/>
      <point x="36" y="-101"/>
      <point x="27" y="-110"/>
      <point x="27" y="-123" type="curve" smooth="yes"/>
      <point x="27" y="-137" type="line" smooth="yes"/>
      <point x="27" y="-150"/>
      <point x="36" y="-159"/>
      <point x="49" y="-159" type="curve" smooth="yes"/>
      <point x="54" y="-159" type="line" smooth="yes"/>
      <point x="211" y="-159"/>
      <point x="222" y="-53"/>
      <point x="222" y="130" type="curve" smooth="yes"/>
      <point x="222" y="205"/>
      <point x="240" y="235"/>
      <point x="277" y="261" type="curve"/>
      <point x="283" y="265" type="line"/>
      <point x="301" y="277"/>
      <point x="307" y="286"/>
      <point x="307" y="302" type="curve" smooth="yes"/>
      <point x="307" y="314" type="line" smooth="yes"/>
      <point x="307" y="330"/>
      <point x="301" y="339"/>
      <point x="283" y="351" type="curve"/>
      <point x="278" y="354" type="line"/>
      <point x="241" y="380"/>
      <point x="222" y="410"/>
      <point x="222" y="486" type="curve" smooth="yes"/>
      <point x="222" y="669"/>
      <point x="211" y="776"/>
      <point x="54" y="776" type="curve" smooth="yes"/>
    </contour>
  </outline>
</glyph>
<glyph name="Hbar" format="1">
  <advance width="700"/>
  <unicode hex="0126"/>
  <outline>
    <contour>
      <point x="667" y="513" type="line" smooth="yes"/>
      <point x="680" y="513"/>
      <point x="689" y="522"/>
      <point x="689" y="535" type="curve" smooth="yes"/>
      <point x="689" y="549" type="line" smooth="yes"/>
      <point x="689" y="562"/>
      <point x="680" y="571"/>
      <point x="667" y="571" type="curve" smooth="yes"/>
      <point x="43" y="571" type="line" smooth="yes"/>
      <point x="30" y="571"/>
      <point x="21" y="562"/>
      <point x="21" y="549" type="curve" smooth="yes"/>
      <point x="21" y="535" type="line" smooth="yes"/>
      <point x="21" y="522"/>
      <point x="30" y="513"/>
      <point x="43" y="513" type="curve" smooth="yes"/>
    </contour>
    <component base="H"/>
  </outline>
</glyph>
<glyph name="uni02C7" format="1">
  <advance width="412"/>
  <unicode hex="02C7"/>
  <outline>
    <component base="caron"/>
    <contour>
      <point x="206" y="725" type="move" name="top"/>
    </contour>
    <contour>
      <point x="206" y="520" type="move" name="_top"/>
    </contour>
  </outline>
</glyph>
<glyph name="uni02DB" format="1">
  <advance width="313"/>
  <unicode hex="02DB"/>
  <outline>
    <component base="ogonek"/>
    <contour>
      <point x="203" y="10" type="move" name="_ogonek"/>
    </contour>
  </outline>
</glyph>
<glyph name="tildecomb" format="1">
  <advance width="379"/>
  <unicode hex="02DC"/>
  <outline>
    <component base="tilde"/>
    <contour>
      <point x="190" y="684" type="move" name="top"/>
    </contour>
    <contour>
      <point x="190" y="520" type="move" name="_top"/>
    </contour>
  </outline>
</glyph>
<glyph name="gravecomb" format="1">
  <advance width="311"/>
  <unicode hex="0300"/>
  <outline>
    <component base="grave"/>
    <contour>
      <point x="156" y="725" type="move" name="top"/>
    </contour>
    <contour>
      <point x="216" y="520" type="move" name="_top"/>
    </contour>
  </outline>
</glyph>
<glyph name="uni0402" format="1">
  <advance width="688"/>
  <unicode hex="0402"/>
  <outline>
    <contour>
      <point x="228" y="0" type="line" smooth="yes"/>
      <point x="241" y="0"/>
      <point x="250" y="9"/>
      <point x="250" y="22" type="curve" smooth="yes"/>
      <point x="250" y="288" type="line" smooth="yes"/>
      <point x="250" y="366"/>
      <point x="325" y="378"/>
      <point x="438" y="378" type="curve" smooth="yes"/>
      <point x="528" y="378"/>
      <point x="585" y="335"/>
      <point x="585" y="231" type="curve"/>
      <point x="585" y="218" type="line"/>
      <point x="585" y="130"/>
      <point x="549" y="60"/>
      <point x="409" y="60" type="curve" smooth="yes"/>
      <point x="405" y="60" type="line" smooth="yes"/>
      <point x="392" y="60"/>
      <point x="383" y="51"/>
      <point x="383" y="38" type="curve"/>
      <point x="383" y="22" type="line"/>
      <point x="383" y="9"/>
      <point x="392" y="0"/>
      <point x="405" y="0" type="curve"/>
      <point x="409" y="0" type="line"/>
      <point x="582" y="0"/>
      <point x="648" y="96"/>
      <point x="648" y="218" type="curve"/>
      <point x="648" y="246" type="line"/>
      <point x="648" y="381"/>
      <point x="556" y="438"/>
      <point x="436" y="438" type="curve" smooth="yes"/>
      <point x="351" y="438"/>
      <point x="292" y="426"/>
      <point x="250" y="378" type="curve"/>
      <point x="250" y="640" type="line"/>
      <point x="477" y="640" type="line" smooth="yes"/>
      <point x="491" y="640"/>
      <point x="500" y="649"/>
      <point x="500" y="662" type="curve" smooth="yes"/>
      <point x="500" y="677" type="line" smooth="yes"/>
      <point x="500" y="691"/>
      <point x="491" y="700"/>
      <point x="477" y="700" type="curve" smooth="yes"/>
      <point x="49" y="700" type="line" smooth="yes"/>
      <point x="36" y="700"/>
      <point x="27" y="691"/>
      <point x="27" y="677" type="curve" smooth="yes"/>
      <point x="27" y="662" type="line" smooth="yes"/>
      <point x="27" y="649"/>
      <point x="36" y="640"/>
      <point x="49" y="640" type="curve" smooth="yes"/>
      <point x="187" y="640" type="line"/>
      <point x="187" y="22" type="line" smooth="yes"/>
      <point x="187" y="9"/>
      <point x="196" y="0"/>
      <point x="210" y="0" type="curve" smooth="yes"/>
    </contour>
  </outline>
</glyph>
<glyph name="uni0404" format="1">
  <advance width="620"/>
  <unicode hex="0404"/>
  <outline>
    <contour>
      <point x="462" y="-10"/>
      <point x="555" y="61"/>
      <point x="567" y="160" type="curve" smooth="yes"/>
      <point x="568" y="172"/>
      <point x="558" y="180"/>
      <point x="546" y="180" type="curve" smooth="yes"/>
      <point x="526" y="180" type="line" smooth="yes"/>
      <point x="513" y="180"/>
      <point x="508" y="175"/>
      <point x="504" y="159" type="curve" smooth="yes"/>
      <point x="489" y="99"/>
      <point x="432" y="50"/>
      <point x="322" y="50" type="curve" smooth="yes"/>
      <point x="199" y="50"/>
      <point x="128" y="143"/>
      <point x="128" y="296" type="curve" smooth="yes"/>
      <point x="128" y="321" type="line"/>
      <point x="392" y="321" type="line" smooth="yes"/>
      <point x="405" y="321"/>
      <point x="414" y="330"/>
      <point x="414" y="344" type="curve" smooth="yes"/>
      <point x="414" y="358" type="line" smooth="yes"/>
      <point x="414" y="372"/>
      <point x="405" y="381"/>
      <point x="392" y="381" type="curve" smooth="yes"/>
      <point x="128" y="381" type="line"/>
      <point x="128" y="404" type="line" smooth="yes"/>
      <point x="128" y="573"/>
      <point x="199" y="650"/>
      <point x="322" y="650" type="curve" smooth="yes"/>
      <point x="432" y="650"/>
      <point x="489" y="601"/>
      <point x="504" y="541" type="curve" smooth="yes"/>
      <point x="508" y="525"/>
      <point x="513" y="520"/>
      <point x="526" y="520" type="curve" smooth="yes"/>
      <point x="546" y="520" type="line" smooth="yes"/>
      <point x="558" y="520"/>
      <point x="568" y="528"/>
      <point x="567" y="540" type="curve" smooth="yes"/>
      <point x="555" y="639"/>
      <point x="462" y="710"/>
      <point x="322" y="710" type="curve" smooth="yes"/>
      <point x="179" y="710"/>
      <point x="71" y="628"/>
      <point x="65" y="404" type="curve" smooth="yes"/>
      <point x="64" y="364"/>
      <point x="64" y="334"/>
      <point x="65" y="296" type="curve" smooth="yes"/>
      <point x="71" y="72"/>
      <point x="179" y="-10"/>
      <point x="322" y="-10" type="curve" smooth="yes"/>
    </contour>
  </outline>
</glyph>
<glyph name="uni0409" format="1">
  <advance width="949"/>
  <unicode hex="0409"/>
  <outline>
    <contour>
      <point x="176" y="11"/>
      <point x="248" y="128"/>
      <point x="248" y="449" type="curve" smooth="yes"/>
      <point x="248" y="640" type="line"/>
      <point x="493" y="640" type="line"/>
      <point x="493" y="22" type="line" smooth="yes"/>
      <point x="493" y="9"/>
      <point x="502" y="0"/>
      <point x="515" y="0" type="curve" smooth="yes"/>
      <point x="699" y="0" type="line" smooth="yes"/>
      <point x="845" y="0"/>
      <point x="909" y="111"/>
      <point x="909" y="214" type="curve" smooth="yes"/>
      <point x="909" y="350"/>
      <point x="833" y="423"/>
      <point x="699" y="423" type="curve" smooth="yes"/>
      <point x="556" y="423" type="line"/>
      <point x="556" y="678" type="line" smooth="yes"/>
      <point x="556" y="691"/>
      <point x="547" y="700"/>
      <point x="534" y="700" type="curve" smooth="yes"/>
      <point x="207" y="700" type="line" smooth="yes"/>
      <point x="194" y="700"/>
      <point x="185" y="691"/>
      <point x="185" y="678" type="curve" smooth="yes"/>
      <point x="185" y="457" type="line" smooth="yes"/>
      <point x="185" y="168"/>
      <point x="126" y="76"/>
      <point x="40" y="64" type="curve" smooth="yes"/>
      <point x="28" y="63"/>
      <point x="20" y="54"/>
      <point x="20" y="42" type="curve" smooth="yes"/>
      <point x="20" y="24" type="line" smooth="yes"/>
      <point x="20" y="11"/>
      <point x="30" y="0"/>
      <point x="43" y="1" type="curve" smooth="yes"/>
    </contour>
    <contour>
      <point x="556" y="363" type="line"/>
      <point x="689" y="363" type="line" smooth="yes"/>
      <point x="796" y="363"/>
      <point x="846" y="314"/>
      <point x="846" y="217" type="curve" smooth="yes"/>
      <point x="846" y="122"/>
      <point x="788" y="60"/>
      <point x="689" y="60" type="curve" smooth="yes"/>
      <point x="556" y="60" type="line"/>
    </contour>
  </outline>
</glyph>
<glyph name="uni040B" format="1">
  <advance width="699"/>
  <unicode hex="040B"/>
  <outline>
    <contour>
      <point x="228" y="0" type="line" smooth="yes"/>
      <point x="241" y="0"/>
      <point x="250" y="9"/>
      <point x="250" y="22" type="curve" smooth="yes"/>
      <point x="250" y="298" type="line" smooth="yes"/>
      <point x="250" y="384"/>
      <point x="375" y="378"/>
      <point x="438" y="378" type="curve" smooth="yes"/>
      <point x="548" y="378"/>
      <point x="585" y="341"/>
      <point x="585" y="231" type="curve" smooth="yes"/>
      <point x="585" y="22" type="line" smooth="yes"/>
      <point x="585" y="9"/>
      <point x="594" y="0"/>
      <point x="608" y="0" type="curve" smooth="yes"/>
      <point x="626" y="0" type="line" smooth="yes"/>
      <point x="639" y="0"/>
      <point x="648" y="9"/>
      <point x="648" y="22" type="curve" smooth="yes"/>
      <point x="648" y="236" type="line" smooth="yes"/>
      <point x="648" y="376"/>
      <point x="586" y="438"/>
      <point x="446" y="438" type="curve" smooth="yes"/>
      <point x="381" y="438"/>
      <point x="315" y="438"/>
      <point x="250" y="378" type="curve"/>
      <point x="250" y="640" type="line"/>
      <point x="477" y="640" type="line" smooth="yes"/>
      <point x="491" y="640"/>
      <point x="500" y="649"/>
      <point x="500" y="662" type="curve" smooth="yes"/>
      <point x="500" y="677" type="line" smooth="yes"/>
      <point x="500" y="691"/>
      <point x="491" y="700"/>
      <point x="477" y="700" type="curve" smooth="yes"/>
      <point x="49" y="700" type="line" smooth="yes"/>
      <point x="36" y="700"/>
      <point x="27" y="691"/>
      <point x="27" y="677" type="curve" smooth="yes"/>
      <point x="27" y="662" type="line" smooth="yes"/>
      <point x="27" y="649"/>
      <point x="36" y="640"/>
      <point x="49" y="640" type="curve" smooth="yes"/>
      <point x="187" y="640" type="line"/>
      <point x="187" y="22" type="line" smooth="yes"/>
      <point x="187" y="9"/>
      <point x="196" y="0"/>
      <point x="210" y="0" type="curve" smooth="yes"/>
    </contour>
  </outline>
</glyph>
<glyph name="uni040F" format="1">
  <advance width="700"/>
  <unicode hex="040F"/>
  <outline>
    <contour>
      <point x="358" y="-140" type="line" smooth="yes"/>
      <point x="372" y="-140"/>
      <point x="381" y="-131"/>
      <point x="381" y="-118" type="curve" smooth="yes"/>
      <point x="381" y="0" type="line"/>
      <point x="583" y="0" type="line" smooth="yes"/>
      <point x="597" y="0"/>
      <point x="606" y="9"/>
      <point x="606" y="22" type="curve" smooth="yes"/>
      <point x="606" y="678" type="line" smooth="yes"/>
      <point x="606" y="691"/>
      <point x="597" y="700"/>
      <point x="583" y="700" type="curve" smooth="yes"/>
      <point x="565" y="700" type="line" smooth="yes"/>
      <point x="552" y="700"/>
      <point x="543" y="691"/>
      <point x="543" y="678" type="curve" smooth="yes"/>
      <point x="543" y="60" type="line"/>
      <point x="157" y="60" type="line"/>
      <point x="157" y="678" type="line" smooth="yes"/>
      <point x="157" y="691"/>
      <point x="148" y="700"/>
      <point x="134" y="700" type="curve" smooth="yes"/>
      <point x="116" y="700" type="line" smooth="yes"/>
      <point x="103" y="700"/>
      <point x="94" y="691"/>
      <point x="94" y="678" type="curve" smooth="yes"/>
      <point x="94" y="22" type="line" smooth="yes"/>
      <point x="94" y="9"/>
      <point x="103" y="0"/>
      <point x="116" y="0" type="curve" smooth="yes"/>
      <point x="318" y="0" type="line"/>
      <point x="318" y="-118" type="line" smooth="yes"/>
      <point x="318" y="-131"/>
      <point x="327" y="-140"/>
      <point x="340" y="-140" type="curve"/>
    </contour>
  </outline>
</glyph>
<glyph name="uni0413" format="1">
  <advance width="525"/>
  <unicode hex="0413"/>
  <outline>
    <contour>
      <point x="134" y="0" type="line" smooth="yes"/>
      <point x="148" y="0"/>
      <point x="157" y="9"/>
      <point x="157" y="22" type="curve" smooth="yes"/>
      <point x="157" y="640" type="line"/>
      <point x="482" y="640" type="line" smooth="yes"/>
      <point x="496" y="640"/>
      <point x="505" y="649"/>
      <point x="505" y="662" type="curve" smooth="yes"/>
      <point x="505" y="677" type="line" smooth="yes"/>
      <point x="505" y="691"/>
      <point x="496" y="700"/>
      <point x="482" y="700" type="curve" smooth="yes"/>
      <point x="116" y="700" type="line" smooth="yes"/>
      <point x="103" y="700"/>
      <point x="94" y="691"/>
      <point x="94" y="677" type="curve" smooth="yes"/>
      <point x="94" y="22" type="line" smooth="yes"/>
      <point x="94" y="9"/>
      <point x="103" y="0"/>
      <point x="116" y="0" type="curve" smooth="yes"/>
    </contour>
    <contour>
      <point x="313" y="700" type="move" name="top"/>
    </contour>
    <contour>
      <point x="134" y="0" type="move" name="bottomright"/>
    </contour>
  </outline>
</glyph>
<glyph name="uni0414" format="1">
  <advance width="677"/>
  <unicode hex="0414"/>
  <outline>
    <contour>
      <point x="70" y="-139" type="line" smooth="yes"/>
      <point x="84" y="-139"/>
      <point x="93" y="-130"/>
      <point x="93" y="-117" type="curve" smooth="yes"/>
      <point x="93" y="0" type="line"/>
      <point x="588" y="0" type="line"/>
      <point x="588" y="-117" type="line" smooth="yes"/>
      <point x="588" y="-130"/>
      <point x="597" y="-139"/>
      <point x="610" y="-139" type="curve" smooth="yes"/>
      <point x="628" y="-139" type="line" smooth="yes"/>
      <point x="642" y="-139"/>
      <point x="651" y="-130"/>
      <point x="651" y="-117" type="curve" smooth="yes"/>
      <point x="651" y="38" type="line" smooth="yes"/>
      <point x="651" y="51"/>
      <point x="642" y="60"/>
      <point x="628" y="60" type="curve" smooth="yes"/>
      <point x="578" y="60" type="line"/>
      <point x="578" y="677" type="line" smooth="yes"/>
      <point x="578" y="691"/>
      <point x="569" y="700"/>
      <point x="555" y="700" type="curve" smooth="yes"/>
      <point x="199" y="700" type="line" smooth="yes"/>
      <point x="186" y="700"/>
      <point x="177" y="691"/>
      <point x="177" y="678" type="curve" smooth="yes"/>
      <point x="177" y="457" type="line" smooth="yes"/>
      <point x="177" y="168"/>
      <point x="137" y="60"/>
      <point x="75" y="60" type="curve" smooth="yes"/>
      <point x="52" y="60" type="line" smooth="yes"/>
      <point x="39" y="60"/>
      <point x="30" y="51"/>
      <point x="30" y="38" type="curve" smooth="yes"/>
      <point x="30" y="-117" type="line" smooth="yes"/>
      <point x="30" y="-130"/>
      <point x="39" y="-139"/>
      <point x="52" y="-139" type="curve" smooth="yes"/>
    </contour>
    <contour>
      <point x="215" y="119"/>
      <point x="240" y="238"/>
      <point x="240" y="449" type="curve" smooth="yes"/>
      <point x="240" y="640" type="line"/>
      <point x="515" y="640" type="line"/>
      <point x="515" y="60" type="line"/>
      <point x="167" y="60" type="line"/>
    </contour>
  </outline>
</glyph>
<glyph name="uni0416" format="1">
  <advance width="898"/>
  <unicode hex="0416"/>
  <outline>
    <contour>
      <point x="92" y="0" type="line" smooth="yes"/>
      <point x="100" y="0"/>
      <point x="108" y="5"/>
      <point x="111" y="13" type="curve" smooth="yes"/>
      <point x="182" y="201" type="line" smooth="yes"/>
      <point x="215" y="288"/>
      <point x="254" y="325"/>
      <point x="316" y="325" type="curve" smooth="yes"/>
      <point x="418" y="325" type="line"/>
      <point x="418" y="22" type="line" smooth="yes"/>
      <point x="418" y="9"/>
      <point x="427" y="0"/>
      <point x="441" y="0" type="curve" smooth="yes"/>
      <point x="459" y="0" type="line" smooth="yes"/>
      <point x="472" y="0"/>
      <point x="481" y="9"/>
      <point x="481" y="22" type="curve" smooth="yes"/>
      <point x="481" y="325" type="line"/>
      <point x="583" y="325" type="line" smooth="yes"/>
      <point x="645" y="325"/>
      <point x="684" y="288"/>
      <point x="717" y="201" type="curve" smooth="yes"/>
      <point x="788" y="13" type="line" smooth="yes"/>
      <point x="791" y="5"/>
      <point x="799" y="0"/>
      <point x="807" y="0" type="curve" smooth="yes"/>
      <point x="827" y="0" type="line" smooth="yes"/>
      <point x="844" y="0"/>
      <point x="855" y="17"/>
      <point x="848" y="35" type="curve" smooth="yes"/>
      <point x="777" y="223" type="line" smooth="yes"/>
      <point x="735" y="334"/>
      <point x="674" y="383"/>
      <point x="583" y="384" type="curve" smooth="yes"/>
      <point x="481" y="385" type="line"/>
      <point x="481" y="677" type="line" smooth="yes"/>
      <point x="481" y="691"/>
      <point x="472" y="700"/>
      <point x="459" y="700" type="curve" smooth="yes"/>
      <point x="441" y="700" type="line" smooth="yes"/>
      <point x="427" y="700"/>
      <point x="418" y="691"/>
      <point x="418" y="677" type="curve" smooth="yes"/>
      <point x="418" y="385" type="line"/>
      <point x="316" y="384" type="line" smooth="yes"/>
      <point x="225" y="383"/>
      <point x="164" y="334"/>
      <point x="122" y="223" type="curve" smooth="yes"/>
      <point x="51" y="35" type="line" smooth="yes"/>
      <point x="44" y="17"/>
      <point x="55" y="0"/>
      <point x="72" y="0" type="curve" smooth="yes"/>
    </contour>
    <contour>
      <point x="312" y="345" type="line"/>
      <point x="109" y="685" type="line" smooth="yes"/>
      <point x="103" y="694"/>
      <point x="95" y="700"/>
      <point x="77" y="700" type="curve" smooth="yes"/>
      <point x="61" y="700" type="line" smooth="yes"/>
      <point x="45" y="700"/>
      <point x="37" y="685"/>
      <point x="48" y="667" type="curve" smooth="yes"/>
      <point x="240" y="346" type="line"/>
    </contour>
    <contour>
      <point x="659" y="346" type="line"/>
      <point x="851" y="667" type="line" smooth="yes"/>
      <point x="861" y="684"/>
      <point x="853" y="700"/>
      <point x="838" y="700" type="curve" smooth="yes"/>
      <point x="822" y="700" type="line" smooth="yes"/>
      <point x="805" y="700"/>
      <point x="793" y="694"/>
      <point x="788" y="685" type="curve" smooth="yes"/>
      <point x="585" y="345" type="line"/>
    </contour>
  </outline>
</glyph>
<glyph name="uni0418" format="1">
  <advance width="726"/>
  <unicode hex="0418"/>
  <outline>
    <contour>
      <point x="138" y="0" type="line" smooth="yes"/>
      <point x="151" y="0"/>
      <point x="157" y="9"/>
      <point x="159" y="12" type="curve" smooth="yes"/>
      <point x="569" y="588" type="line"/>
      <point x="569" y="22" type="line" smooth="yes"/>
      <point x="569" y="9"/>
      <point x="578" y="0"/>
      <point x="592" y="0" type="curve" smooth="yes"/>
      <point x="610" y="0" type="line" smooth="yes"/>
      <point x="623" y="0"/>
      <point x="632" y="9"/>
      <point x="632" y="22" type="curve" smooth="yes"/>
      <point x="632" y="677" type="line" smooth="yes"/>
      <point x="632" y="691"/>
      <point x="623" y="700"/>
      <point x="610" y="700" type="curve" smooth="yes"/>
      <point x="589" y="700" type="line" smooth="yes"/>
      <point x="576" y="700"/>
      <point x="570" y="691"/>
      <point x="568" y="688" type="curve" smooth="yes"/>
      <point x="157" y="110" type="line"/>
      <point x="157" y="677" type="line" smooth="yes"/>
      <point x="157" y="691"/>
      <point x="148" y="700"/>
      <point x="135" y="700" type="curve" smooth="yes"/>
      <point x="117" y="700" type="line" smooth="yes"/>
      <point x="103" y="700"/>
      <point x="94" y="691"/>
      <point x="94" y="677" type="curve" smooth="yes"/>
      <point x="94" y="23" type="line" smooth="yes"/>
      <point x="94" y="9"/>
      <point x="103" y="0"/>
      <point x="116" y="0" type="curve" smooth="yes"/>
    </contour>
    <contour>
      <point x="367" y="700" type="move" name="top"/>
    </contour>
    <contour>
      <point x="578" y="0" type="move" name="bottomright"/>
    </contour>
  </outline>
</glyph>
<glyph name="uni041A" format="1">
  <advance width="617"/>
  <unicode hex="041A"/>
  <outline>
    <contour>
      <point x="134" y="0" type="line" smooth="yes"/>
      <point x="148" y="0"/>
      <point x="157" y="9"/>
      <point x="157" y="22" type="curve" smooth="yes"/>
      <point x="157" y="325" type="line"/>
      <point x="307" y="325" type="line" smooth="yes"/>
      <point x="369" y="325"/>
      <point x="408" y="288"/>
      <point x="441" y="201" type="curve" smooth="yes"/>
      <point x="512" y="13" type="line" smooth="yes"/>
      <point x="515" y="5"/>
      <point x="523" y="0"/>
      <point x="531" y="0" type="curve" smooth="yes"/>
      <point x="551" y="0" type="line" smooth="yes"/>
      <point x="568" y="0"/>
      <point x="579" y="17"/>
      <point x="572" y="35" type="curve" smooth="yes"/>
      <point x="501" y="223" type="line" smooth="yes"/>
      <point x="467" y="312"/>
      <point x="421" y="361"/>
      <point x="358" y="378" type="curve"/>
      <point x="547" y="667" type="line" smooth="yes"/>
      <point x="550" y="672"/>
      <point x="552" y="676"/>
      <point x="552" y="680" type="curve" smooth="yes"/>
      <point x="552" y="691"/>
      <point x="543" y="700"/>
      <point x="532" y="700" type="curve" smooth="yes"/>
      <point x="516" y="700" type="line" smooth="yes"/>
      <point x="500" y="700"/>
      <point x="489" y="694"/>
      <point x="483" y="685" type="curve" smooth="yes"/>
      <point x="289" y="384" type="line"/>
      <point x="157" y="385" type="line"/>
      <point x="157" y="677" type="line" smooth="yes"/>
      <point x="157" y="691"/>
      <point x="148" y="700"/>
      <point x="134" y="700" type="curve" smooth="yes"/>
      <point x="116" y="700" type="line" smooth="yes"/>
      <point x="103" y="700"/>
      <point x="94" y="691"/>
      <point x="94" y="677" type="curve" smooth="yes"/>
      <point x="94" y="22" type="line" smooth="yes"/>
      <point x="94" y="9"/>
      <point x="103" y="0"/>
      <point x="116" y="0" type="curve" smooth="yes"/>
    </contour>
    <contour>
      <point x="309" y="700" type="move" name="top"/>
    </contour>
    <contour>
      <point x="517" y="0" type="move" name="bottomright"/>
    </contour>
  </outline>
</glyph>
<glyph name="uni041B" format="1">
  <advance width="680"/>
  <unicode hex="041B"/>
  <outline>
    <contour>
      <point x="563" y="0" type="line" smooth="yes"/>
      <point x="577" y="0"/>
      <point x="586" y="9"/>
      <point x="586" y="22" type="curve" smooth="yes"/>
      <point x="586" y="677" type="line" smooth="yes"/>
      <point x="586" y="691"/>
      <point x="577" y="700"/>
      <point x="563" y="700" type="curve" smooth="yes"/>
      <point x="207" y="700" type="line" smooth="yes"/>
      <point x="194" y="700"/>
      <point x="185" y="691"/>
      <point x="185" y="678" type="curve" smooth="yes"/>
      <point x="185" y="457" type="line" smooth="yes"/>
      <point x="185" y="168"/>
      <point x="126" y="76"/>
      <point x="40" y="64" type="curve"/>
      <point x="28" y="63"/>
      <point x="20" y="54"/>
      <point x="20" y="42" type="curve" smooth="yes"/>
      <point x="20" y="24" type="line" smooth="yes"/>
      <point x="20" y="11"/>
      <point x="30" y="0"/>
      <point x="43" y="1" type="curve" smooth="yes"/>
      <point x="176" y="12"/>
      <point x="248" y="128"/>
      <point x="248" y="449" type="curve" smooth="yes"/>
      <point x="248" y="640" type="line"/>
      <point x="523" y="640" type="line"/>
      <point x="523" y="22" type="line" smooth="yes"/>
      <point x="523" y="9"/>
      <point x="532" y="0"/>
      <point x="545" y="0" type="curve" smooth="yes"/>
    </contour>
  </outline>
</glyph>
<glyph name="uni0423" format="1">
  <advance width="575"/>
  <unicode hex="0423"/>
  <outline>
    <contour>
      <point x="148" y="0" type="line" smooth="yes"/>
      <point x="257" y="0"/>
      <point x="294" y="67"/>
      <point x="355" y="204" type="curve" smooth="yes"/>
      <point x="561" y="668" type="line" smooth="yes"/>
      <point x="563" y="672"/>
      <point x="564" y="675"/>
      <point x="564" y="680" type="curve" smooth="yes"/>
      <point x="564" y="691"/>
      <point x="555" y="700"/>
      <point x="544" y="700" type="curve" smooth="yes"/>
      <point x="523" y="700" type="line" smooth="yes"/>
      <point x="514" y="700"/>
      <point x="504" y="695"/>
      <point x="500" y="685" type="curve" smooth="yes"/>
      <point x="302" y="232" type="line" smooth="yes"/>
      <point x="249" y="112"/>
      <point x="215" y="60"/>
      <point x="148" y="60" type="curve" smooth="yes"/>
      <point x="114" y="60" type="line" smooth="yes"/>
      <point x="101" y="60"/>
      <point x="92" y="51"/>
      <point x="92" y="37" type="curve" smooth="yes"/>
      <point x="92" y="22" type="line" smooth="yes"/>
      <point x="92" y="9"/>
      <point x="101" y="0"/>
      <point x="114" y="0" type="curve" smooth="yes"/>
    </contour>
    <contour>
      <point x="333" y="233" type="line"/>
      <point x="80" y="685" type="line" smooth="yes"/>
      <point x="74" y="695"/>
      <point x="66" y="700"/>
      <point x="57" y="700" type="curve" smooth="yes"/>
      <point x="36" y="700" type="line" smooth="yes"/>
      <point x="25" y="700"/>
      <point x="16" y="691"/>
      <point x="16" y="680" type="curve" smooth="yes"/>
      <point x="16" y="675"/>
      <point x="17" y="672"/>
      <point x="19" y="668" type="curve" smooth="yes"/>
      <point x="297" y="166" type="line"/>
    </contour>
    <contour>
      <point x="288" y="700" type="move" name="top"/>
    </contour>
  </outline>
</glyph>
<glyph name="uni0424" format="1">
  <advance width="825"/>
  <unicode hex="0424"/>
  <outline>
    <contour>
      <point x="422" y="-32" type="line" smooth="yes"/>
      <point x="435" y="-32"/>
      <point x="444" y="-23"/>
      <point x="444" y="-10" type="curve" smooth="yes"/>
      <point x="444" y="71" type="line"/>
      <point x="641" y="71"/>
      <point x="752" y="142"/>
      <point x="758" y="297" type="curve" smooth="yes"/>
      <point x="760" y="350"/>
      <point x="760" y="392"/>
      <point x="758" y="445" type="curve" smooth="yes"/>
      <point x="752" y="591"/>
      <point x="630" y="661"/>
      <point x="444" y="661" type="curve"/>
      <point x="444" y="728" type="line" smooth="yes"/>
      <point x="444" y="741"/>
      <point x="435" y="750"/>
      <point x="422" y="750" type="curve" smooth="yes"/>
      <point x="403" y="750" type="line" smooth="yes"/>
      <point x="390" y="750"/>
      <point x="381" y="741"/>
      <point x="381" y="728" type="curve" smooth="yes"/>
      <point x="381" y="661" type="line"/>
      <point x="195" y="661"/>
      <point x="73" y="591"/>
      <point x="67" y="445" type="curve" smooth="yes"/>
      <point x="65" y="392"/>
      <point x="65" y="350"/>
      <point x="67" y="297" type="curve" smooth="yes"/>
      <point x="73" y="142"/>
      <point x="184" y="71"/>
      <point x="381" y="71" type="curve"/>
      <point x="381" y="-10" type="line" smooth="yes"/>
      <point x="381" y="-23"/>
      <point x="390" y="-32"/>
      <point x="403" y="-32" type="curve" smooth="yes"/>
    </contour>
    <contour>
      <point x="238" y="131"/>
      <point x="135" y="181"/>
      <point x="130" y="302" type="curve" smooth="yes"/>
      <point x="128" y="354"/>
      <point x="128" y="388"/>
      <point x="130" y="440" type="curve" smooth="yes"/>
      <point x="134" y="554"/>
      <point x="240" y="601"/>
      <point x="381" y="601" type="curve"/>
      <point x="381" y="131" type="line"/>
    </contour>
    <contour>
      <point x="444" y="601" type="line"/>
      <point x="585" y="601"/>
      <point x="693" y="554"/>
      <point x="695" y="440" type="curve" smooth="yes"/>
      <point x="696" y="388"/>
      <point x="697" y="354"/>
      <point x="695" y="302" type="curve" smooth="yes"/>
      <point x="690" y="181"/>
      <point x="587" y="131"/>
      <point x="444" y="131" type="curve"/>
    </contour>
  </outline>
</glyph>
<glyph name="uni0426" format="1">
  <advance width="705"/>
  <unicode hex="0426"/>
  <outline>
    <contour>
      <point x="656" y="-140" type="line" smooth="yes"/>
      <point x="670" y="-140"/>
      <point x="679" y="-131"/>
      <point x="679" y="-118" type="curve" smooth="yes"/>
      <point x="679" y="38" type="line" smooth="yes"/>
      <point x="679" y="51"/>
      <point x="670" y="60"/>
      <point x="656" y="60" type="curve" smooth="yes"/>
      <point x="606" y="60" type="line"/>
      <point x="606" y="678" type="line" smooth="yes"/>
      <point x="606" y="691"/>
      <point x="597" y="700"/>
      <point x="583" y="700" type="curve" smooth="yes"/>
      <point x="565" y="700" type="line" smooth="yes"/>
      <point x="552" y="700"/>
      <point x="543" y="691"/>
      <point x="543" y="678" type="curve" smooth="yes"/>
      <point x="543" y="60" type="line"/>
      <point x="157" y="60" type="line"/>
      <point x="157" y="678" type="line" smooth="yes"/>
      <point x="157" y="691"/>
      <point x="148" y="700"/>
      <point x="134" y="700" type="curve" smooth="yes"/>
      <point x="116" y="700" type="line" smooth="yes"/>
      <point x="103" y="700"/>
      <point x="94" y="691"/>
      <point x="94" y="678" type="curve" smooth="yes"/>
      <point x="94" y="23" type="line" smooth="yes"/>
      <point x="94" y="9"/>
      <point x="103" y="0"/>
      <point x="116" y="0" type="curve" smooth="yes"/>
      <point x="616" y="0" type="line"/>
      <point x="616" y="-118" type="line" smooth="yes"/>
      <point x="616" y="-131"/>
      <point x="625" y="-140"/>
      <point x="638" y="-140" type="curve" smooth="yes"/>
    </contour>
  </outline>
</glyph>
<glyph name="uni0427" format="1">
  <advance width="606"/>
  <unicode hex="0427"/>
  <outline>
    <contour>
      <point x="489" y="0" type="line" smooth="yes"/>
      <point x="503" y="0"/>
      <point x="512" y="9"/>
      <point x="512" y="22" type="curve" smooth="yes"/>
      <point x="512" y="678" type="line" smooth="yes"/>
      <point x="512" y="691"/>
      <point x="503" y="700"/>
      <point x="489" y="700" type="curve" smooth="yes"/>
      <point x="471" y="700" type="line" smooth="yes"/>
      <point x="458" y="700"/>
      <point x="449" y="691"/>
      <point x="449" y="678" type="curve" smooth="yes"/>
      <point x="449" y="402" type="line" smooth="yes"/>
      <point x="449" y="316"/>
      <point x="324" y="322"/>
      <point x="261" y="322" type="curve" smooth="yes"/>
      <point x="151" y="322"/>
      <point x="114" y="359"/>
      <point x="114" y="469" type="curve" smooth="yes"/>
      <point x="114" y="678" type="line" smooth="yes"/>
      <point x="114" y="691"/>
      <point x="105" y="700"/>
      <point x="91" y="700" type="curve" smooth="yes"/>
      <point x="73" y="700" type="line" smooth="yes"/>
      <point x="60" y="700"/>
      <point x="51" y="691"/>
      <point x="51" y="678" type="curve" smooth="yes"/>
      <point x="51" y="464" type="line" smooth="yes"/>
      <point x="51" y="324"/>
      <point x="113" y="262"/>
      <point x="253" y="262" type="curve" smooth="yes"/>
      <point x="338" y="262"/>
      <point x="404" y="280"/>
      <point x="449" y="322" type="curve"/>
      <point x="449" y="22" type="line" smooth="yes"/>
      <point x="449" y="9"/>
      <point x="458" y="0"/>
      <point x="471" y="0" type="curve" smooth="yes"/>
    </contour>
  </outline>
</glyph>
<glyph name="uni0428" format="1">
  <advance width="945"/>
  <unicode hex="0428"/>
  <outline>
    <contour>
      <point x="828" y="0" type="line" smooth="yes"/>
      <point x="842" y="0"/>
      <point x="851" y="9"/>
      <point x="851" y="22" type="curve" smooth="yes"/>
      <point x="851" y="678" type="line" smooth="yes"/>
      <point x="851" y="691"/>
      <point x="842" y="700"/>
      <point x="828" y="700" type="curve" smooth="yes"/>
      <point x="810" y="700" type="line" smooth="yes"/>
      <point x="797" y="700"/>
      <point x="788" y="691"/>
      <point x="788" y="678" type="curve" smooth="yes"/>
      <point x="788" y="60" type="line"/>
      <point x="504" y="60" type="line"/>
      <point x="504" y="678" type="line" smooth="yes"/>
      <point x="504" y="691"/>
      <point x="495" y="700"/>
      <point x="481" y="700" type="curve" smooth="yes"/>
      <point x="463" y="700" type="line"/>
      <point x="450" y="700"/>
      <point x="441" y="691"/>
      <point x="441" y="678" type="curve" smooth="yes"/>
      <point x="441" y="60" type="line"/>
      <point x="157" y="60" type="line"/>
      <point x="157" y="678" type="line" smooth="yes"/>
      <point x="157" y="691"/>
      <point x="148" y="700"/>
      <point x="134" y="700" type="curve" smooth="yes"/>
      <point x="116" y="700" type="line" smooth="yes"/>
      <point x="103" y="700"/>
      <point x="94" y="691"/>
      <point x="94" y="678" type="curve" smooth="yes"/>
      <point x="94" y="22" type="line" smooth="yes"/>
      <point x="94" y="9"/>
      <point x="103" y="0"/>
      <point x="116" y="0" type="curve" smooth="yes"/>
    </contour>
  </outline>
</glyph>
<glyph name="uni0429" format="1">
  <advance width="870"/>
  <unicode hex="0429"/>
  <outline>
    <contour>
      <point x="821" y="-140" type="line" smooth="yes"/>
      <point x="835" y="-140"/>
      <point x="844" y="-131"/>
      <point x="844" y="-118" type="curve" smooth="yes"/>
      <point x="844" y="38" type="line" smooth="yes"/>
      <point x="844" y="51"/>
      <point x="835" y="60"/>
      <point x="821" y="60" type="curve" smooth="yes"/>
      <point x="771" y="60" type="line"/>
      <point x="771" y="678" type="line" smooth="yes"/>
      <point x="771" y="691"/>
      <point x="762" y="700"/>
      <point x="748" y="700" type="curve" smooth="yes"/>
      <point x="730" y="700" type="line" smooth="yes"/>
      <point x="717" y="700"/>
      <point x="708" y="691"/>
      <point x="708" y="678" type="curve" smooth="yes"/>
      <point x="708" y="60" type="line"/>
      <point x="464" y="60" type="line"/>
      <point x="464" y="678" type="line" smooth="yes"/>
      <point x="464" y="691"/>
      <point x="455" y="700"/>
      <point x="441" y="700" type="curve" smooth="yes"/>
      <point x="423" y="700" type="line" smooth="yes"/>
      <point x="410" y="700"/>
      <point x="401" y="691"/>
      <point x="401" y="678" type="curve" smooth="yes"/>
      <point x="401" y="60" type="line"/>
      <point x="157" y="60" type="line"/>
      <point x="157" y="678" type="line" smooth="yes"/>
      <point x="157" y="691"/>
      <point x="148" y="700"/>
      <point x="134" y="700" type="curve" smooth="yes"/>
      <point x="116" y="700" type="line" smooth="yes"/>
      <point x="103" y="700"/>
      <point x="94" y="691"/>
      <point x="94" y="678" type="curve" smooth="yes"/>
      <point x="94" y="22" type="line" smooth="yes"/>
      <point x="94" y="9"/>
      <point x="103" y="0"/>
      <point x="116" y="0" type="curve"/>
      <point x="781" y="0" type="line"/>
      <point x="781" y="-118" type="line" smooth="yes"/>
      <point x="781" y="-131"/>
      <point x="790" y="-140"/>
      <point x="803" y="-140" type="curve" smooth="yes"/>
    </contour>
  </outline>
</glyph>
<glyph name="uni042A" format="1">
  <advance width="693"/>
  <unicode hex="042A"/>
  <outline>
    <contour>
      <point x="443" y="0" type="line" smooth="yes"/>
      <point x="589" y="0"/>
      <point x="653" y="111"/>
      <point x="653" y="214" type="curve" smooth="yes"/>
      <point x="653" y="350"/>
      <point x="577" y="423"/>
      <point x="443" y="423" type="curve" smooth="yes"/>
      <point x="280" y="423" type="line"/>
      <point x="280" y="678" type="line" smooth="yes"/>
      <point x="280" y="691"/>
      <point x="271" y="700"/>
      <point x="258" y="700" type="curve" smooth="yes"/>
      <point x="49" y="700" type="line" smooth="yes"/>
      <point x="36" y="700"/>
      <point x="27" y="691"/>
      <point x="27" y="677" type="curve" smooth="yes"/>
      <point x="27" y="662" type="line" smooth="yes"/>
      <point x="27" y="649"/>
      <point x="36" y="640"/>
      <point x="49" y="640" type="curve" smooth="yes"/>
      <point x="217" y="640" type="line"/>
      <point x="217" y="22" type="line" smooth="yes"/>
      <point x="217" y="9"/>
      <point x="226" y="0"/>
      <point x="239" y="0" type="curve" smooth="yes"/>
    </contour>
    <contour>
      <point x="280" y="363" type="line"/>
      <point x="433" y="363" type="line" smooth="yes"/>
      <point x="540" y="363"/>
      <point x="590" y="314"/>
      <point x="590" y="217" type="curve" smooth="yes"/>
      <point x="590" y="122"/>
      <point x="532" y="60"/>
      <point x="433" y="60" type="curve" smooth="yes"/>
      <point x="280" y="60" type="line"/>
    </contour>
  </outline>
</glyph>
<glyph name="uni042B" format="1">
  <advance width="771"/>
  <unicode hex="042B"/>
  <outline>
    <contour>
      <point x="300" y="0" type="line" smooth="yes"/>
      <point x="446" y="0"/>
      <point x="510" y="111"/>
      <point x="510" y="214" type="curve" smooth="yes"/>
      <point x="510" y="350"/>
      <point x="434" y="423"/>
      <point x="300" y="423" type="curve" smooth="yes"/>
      <point x="157" y="423" type="line"/>
      <point x="157" y="678" type="line" smooth="yes"/>
      <point x="157" y="691"/>
      <point x="148" y="700"/>
      <point x="134" y="700" type="curve" smooth="yes"/>
      <point x="116" y="700" type="line"/>
      <point x="103" y="700"/>
      <point x="94" y="691"/>
      <point x="94" y="678" type="curve" smooth="yes"/>
      <point x="94" y="22" type="line" smooth="yes"/>
      <point x="94" y="9"/>
      <point x="103" y="0"/>
      <point x="116" y="0" type="curve" smooth="yes"/>
    </contour>
    <contour>
      <point x="157" y="363" type="line"/>
      <point x="290" y="363" type="line"/>
      <point x="397" y="363"/>
      <point x="447" y="314"/>
      <point x="447" y="217" type="curve" smooth="yes"/>
      <point x="447" y="122"/>
      <point x="389" y="60"/>
      <point x="290" y="60" type="curve" smooth="yes"/>
      <point x="157" y="60" type="line"/>
    </contour>
    <component base="I" xOffset="520"/>
  </outline>
</glyph>
<glyph name="uni042C" format="1">
  <advance width="580"/>
  <unicode hex="042C"/>
  <outline>
    <contour>
      <point x="330" y="0" type="line" smooth="yes"/>
      <point x="476" y="0"/>
      <point x="540" y="111"/>
      <point x="540" y="214" type="curve" smooth="yes"/>
      <point x="540" y="350"/>
      <point x="464" y="423"/>
      <point x="330" y="423" type="curve" smooth="yes"/>
      <point x="157" y="423" type="line"/>
      <point x="157" y="678" type="line" smooth="yes"/>
      <point x="157" y="691"/>
      <point x="148" y="700"/>
      <point x="134" y="700" type="curve" smooth="yes"/>
      <point x="116" y="700" type="line"/>
      <point x="103" y="700"/>
      <point x="94" y="691"/>
      <point x="94" y="678" type="curve" smooth="yes"/>
      <point x="94" y="22" type="line" smooth="yes"/>
      <point x="94" y="9"/>
      <point x="103" y="0"/>
      <point x="116" y="0" type="curve" smooth="yes"/>
    </contour>
    <contour>
      <point x="157" y="363" type="line"/>
      <point x="320" y="363" type="line"/>
      <point x="427" y="363"/>
      <point x="477" y="314"/>
      <point x="477" y="217" type="curve" smooth="yes"/>
      <point x="477" y="122"/>
      <point x="419" y="60"/>
      <point x="320" y="60" type="curve" smooth="yes"/>
      <point x="157" y="60" type="line"/>
    </contour>
  </outline>
</glyph>
<glyph name="uni042D" format="1">
  <advance width="620"/>
  <unicode hex="042D"/>
  <outline>
    <contour>
      <point x="441" y="-10"/>
      <point x="549" y="72"/>
      <point x="555" y="296" type="curve" smooth="yes"/>
      <point x="556" y="334"/>
      <point x="556" y="364"/>
      <point x="555" y="404" type="curve" smooth="yes"/>
      <point x="549" y="628"/>
      <point x="441" y="710"/>
      <point x="298" y="710" type="curve" smooth="yes"/>
      <point x="158" y="710"/>
      <point x="65" y="639"/>
      <point x="53" y="540" type="curve" smooth="yes"/>
      <point x="52" y="528"/>
      <point x="62" y="520"/>
      <point x="74" y="520" type="curve" smooth="yes"/>
      <point x="94" y="520" type="line" smooth="yes"/>
      <point x="107" y="520"/>
      <point x="112" y="525"/>
      <point x="116" y="541" type="curve" smooth="yes"/>
      <point x="131" y="601"/>
      <point x="188" y="650"/>
      <point x="298" y="650" type="curve" smooth="yes"/>
      <point x="421" y="650"/>
      <point x="492" y="573"/>
      <point x="492" y="404" type="curve" smooth="yes"/>
      <point x="492" y="381" type="line"/>
      <point x="228" y="381" type="line" smooth="yes"/>
      <point x="215" y="381"/>
      <point x="206" y="372"/>
      <point x="206" y="358" type="curve" smooth="yes"/>
      <point x="206" y="344" type="line" smooth="yes"/>
      <point x="206" y="330"/>
      <point x="215" y="321"/>
      <point x="228" y="321" type="curve" smooth="yes"/>
      <point x="492" y="321" type="line"/>
      <point x="492" y="296" type="line" smooth="yes"/>
      <point x="492" y="143"/>
      <point x="421" y="50"/>
      <point x="298" y="50" type="curve" smooth="yes"/>
      <point x="188" y="50"/>
      <point x="131" y="99"/>
      <point x="116" y="159" type="curve" smooth="yes"/>
      <point x="112" y="175"/>
      <point x="107" y="180"/>
      <point x="94" y="180" type="curve" smooth="yes"/>
      <point x="74" y="180" type="line" smooth="yes"/>
      <point x="62" y="180"/>
      <point x="52" y="172"/>
      <point x="53" y="160" type="curve" smooth="yes"/>
      <point x="65" y="61"/>
      <point x="158" y="-10"/>
      <point x="298" y="-10" type="curve" smooth="yes"/>
    </contour>
  </outline>
</glyph>
<glyph name="uni042F" format="1">
  <advance width="640"/>
  <unicode hex="042F"/>
  <outline>
    <contour>
      <point x="524" y="0" type="line"/>
      <point x="537" y="0"/>
      <point x="546" y="9"/>
      <point x="546" y="22" type="curve" smooth="yes"/>
      <point x="546" y="678" type="line" smooth="yes"/>
      <point x="546" y="691"/>
      <point x="537" y="700"/>
      <point x="524" y="700" type="curve" smooth="yes"/>
      <point x="310" y="700" type="line" smooth="yes"/>
      <point x="164" y="700"/>
      <point x="100" y="589"/>
      <point x="100" y="486" type="curve" smooth="yes"/>
      <point x="100" y="350"/>
      <point x="176" y="277"/>
      <point x="310" y="277" type="curve" smooth="yes"/>
      <point x="483" y="277" type="line"/>
      <point x="483" y="22" type="line" smooth="yes"/>
      <point x="483" y="9"/>
      <point x="492" y="0"/>
      <point x="506" y="0" type="curve" smooth="yes"/>
    </contour>
    <contour>
      <point x="120" y="0" type="line" smooth="yes"/>
      <point x="142" y="0"/>
      <point x="149" y="13"/>
      <point x="158" y="27" type="curve" smooth="yes"/>
      <point x="345" y="310" type="line"/>
      <point x="280" y="319" type="line"/>
      <point x="91" y="31" type="line" smooth="yes"/>
      <point x="89" y="27"/>
      <point x="88" y="24"/>
      <point x="88" y="20" type="curve" smooth="yes"/>
      <point x="88" y="9"/>
      <point x="97" y="0"/>
      <point x="108" y="0" type="curve" smooth="yes"/>
    </contour>
    <contour>
      <point x="213" y="337"/>
      <point x="163" y="386"/>
      <point x="163" y="483" type="curve" smooth="yes"/>
      <point x="163" y="578"/>
      <point x="221" y="640"/>
      <point x="320" y="640" type="curve" smooth="yes"/>
      <point x="483" y="640" type="line"/>
      <point x="483" y="337" type="line"/>
      <point x="320" y="337" type="line"/>
    </contour>
  </outline>
</glyph>
<glyph name="uni0431" format="1">
  <advance width="558"/>
  <unicode hex="0431"/>
  <outline>
    <contour>
      <point x="423" y="-10"/>
      <point x="497" y="89"/>
      <point x="501" y="218" type="curve" smooth="yes"/>
      <point x="502" y="231"/>
      <point x="502" y="252"/>
      <point x="501" y="272" type="curve" smooth="yes"/>
      <point x="497" y="401"/>
      <point x="423" y="500"/>
      <point x="289" y="500" type="curve" smooth="yes"/>
      <point x="192" y="500"/>
      <point x="102" y="431"/>
      <point x="97" y="346" type="curve"/>
      <point x="117" y="346" type="line"/>
      <point x="105" y="614"/>
      <point x="202" y="611"/>
      <point x="450" y="678" type="curve" smooth="yes"/>
      <point x="461" y="681"/>
      <point x="467" y="690"/>
      <point x="464" y="702" type="curve"/>
      <point x="460" y="721" type="line" smooth="yes"/>
      <point x="458" y="732"/>
      <point x="446" y="739"/>
      <point x="435" y="736" type="curve" smooth="yes"/>
      <point x="176" y="665"/>
      <point x="56" y="651"/>
      <point x="56" y="337" type="curve" smooth="yes"/>
      <point x="56" y="297"/>
      <point x="56" y="258"/>
      <point x="56" y="218" type="curve"/>
      <point x="60" y="89"/>
      <point x="135" y="-10"/>
      <point x="279" y="-10" type="curve" smooth="yes"/>
    </contour>
    <contour>
      <point x="186" y="48"/>
      <point x="122" y="109"/>
      <point x="118" y="223" type="curve" smooth="yes"/>
      <point x="117" y="235"/>
      <point x="117" y="247"/>
      <point x="118" y="267" type="curve" smooth="yes"/>
      <point x="122" y="381"/>
      <point x="196" y="442"/>
      <point x="289" y="442" type="curve" smooth="yes"/>
      <point x="372" y="442"/>
      <point x="436" y="381"/>
      <point x="440" y="267" type="curve" smooth="yes"/>
      <point x="441" y="247"/>
      <point x="441" y="235"/>
      <point x="440" y="223" type="curve" smooth="yes"/>
      <point x="436" y="109"/>
      <point x="372" y="48"/>
      <point x="279" y="48" type="curve" smooth="yes"/>
    </contour>
  </outline>
</glyph>
<glyph name="uni0432" format="1">
  <advance width="542"/>
  <unicode hex="0432"/>
  <outline>
    <contour>
      <point x="305" y="0" type="line" smooth="yes"/>
      <point x="412" y="0"/>
      <point x="482" y="50"/>
      <point x="482" y="145" type="curve" smooth="yes"/>
      <point x="482" y="196"/>
      <point x="455" y="254"/>
      <point x="402" y="274" type="curve"/>
      <point x="447" y="295"/>
      <point x="472" y="320"/>
      <point x="472" y="384" type="curve" smooth="yes"/>
      <point x="472" y="466"/>
      <point x="410" y="520"/>
      <point x="300" y="520" type="curve" smooth="yes"/>
      <point x="103" y="520" type="line" smooth="yes"/>
      <point x="90" y="520"/>
      <point x="81" y="511"/>
      <point x="81" y="498" type="curve"/>
      <point x="81" y="22" type="line" smooth="yes"/>
      <point x="81" y="9"/>
      <point x="90" y="0"/>
      <point x="103" y="0" type="curve" smooth="yes"/>
    </contour>
    <contour>
      <point x="142" y="233" type="line"/>
      <point x="297" y="233" type="line" smooth="yes"/>
      <point x="380" y="233"/>
      <point x="421" y="206"/>
      <point x="421" y="145" type="curve" smooth="yes"/>
      <point x="421" y="87"/>
      <point x="370" y="58"/>
      <point x="297" y="58" type="curve" smooth="yes"/>
      <point x="142" y="58" type="line"/>
    </contour>
    <contour>
      <point x="142" y="462" type="line"/>
      <point x="290" y="462" type="line" smooth="yes"/>
      <point x="363" y="462"/>
      <point x="411" y="442"/>
      <point x="411" y="384" type="curve" smooth="yes"/>
      <point x="411" y="326"/>
      <point x="363" y="291"/>
      <point x="290" y="291" type="curve" smooth="yes"/>
      <point x="142" y="291" type="line"/>
    </contour>
  </outline>
</glyph>
<glyph name="uni0433" format="1">
  <advance width="418"/>
  <unicode hex="0433"/>
  <outline>
    <contour>
      <point x="120" y="0" type="line" smooth="yes"/>
      <point x="133" y="0"/>
      <point x="142" y="9"/>
      <point x="142" y="22" type="curve" smooth="yes"/>
      <point x="142" y="462" type="line"/>
      <point x="386" y="462" type="line" smooth="yes"/>
      <point x="399" y="462"/>
      <point x="408" y="471"/>
      <point x="408" y="484" type="curve" smooth="yes"/>
      <point x="408" y="498" type="line" smooth="yes"/>
      <point x="408" y="511"/>
      <point x="399" y="520"/>
      <point x="386" y="520" type="curve" smooth="yes"/>
      <point x="103" y="520" type="line" smooth="yes"/>
      <point x="90" y="520"/>
      <point x="81" y="511"/>
      <point x="81" y="498" type="curve" smooth="yes"/>
      <point x="81" y="22" type="line" smooth="yes"/>
      <point x="81" y="9"/>
      <point x="90" y="0"/>
      <point x="103" y="0" type="curve" smooth="yes"/>
    </contour>
    <contour>
      <point x="259" y="520" type="move" name="top"/>
    </contour>
    <contour>
      <point x="120" y="0" type="move" name="bottomright"/>
    </contour>
  </outline>
</glyph>
<glyph name="uni0434" format="1">
  <advance width="571"/>
  <unicode hex="0434"/>
  <outline>
    <contour>
      <point x="59" y="-110" type="line" smooth="yes"/>
      <point x="72" y="-110"/>
      <point x="81" y="-101"/>
      <point x="81" y="-88" type="curve" smooth="yes"/>
      <point x="81" y="0" type="line"/>
      <point x="480" y="0" type="line"/>
      <point x="480" y="-88" type="line" smooth="yes"/>
      <point x="480" y="-101"/>
      <point x="489" y="-110"/>
      <point x="502" y="-110" type="curve" smooth="yes"/>
      <point x="519" y="-110" type="line" smooth="yes"/>
      <point x="532" y="-110"/>
      <point x="541" y="-101"/>
      <point x="541" y="-88" type="curve" smooth="yes"/>
      <point x="541" y="38" type="line" smooth="yes"/>
      <point x="541" y="51"/>
      <point x="532" y="60"/>
      <point x="519" y="60" type="curve" smooth="yes"/>
      <point x="470" y="60" type="line"/>
      <point x="470" y="498" type="line" smooth="yes"/>
      <point x="470" y="511"/>
      <point x="461" y="520"/>
      <point x="448" y="520" type="curve" smooth="yes"/>
      <point x="160" y="520" type="line" smooth="yes"/>
      <point x="147" y="520"/>
      <point x="138" y="511"/>
      <point x="138" y="498" type="curve" smooth="yes"/>
      <point x="138" y="375" type="line" smooth="yes"/>
      <point x="138" y="144"/>
      <point x="101" y="59"/>
      <point x="45" y="58" type="curve" smooth="yes"/>
      <point x="42" y="58" type="line" smooth="yes"/>
      <point x="29" y="58"/>
      <point x="20" y="49"/>
      <point x="20" y="36" type="curve" smooth="yes"/>
      <point x="20" y="-88" type="line" smooth="yes"/>
      <point x="20" y="-101"/>
      <point x="29" y="-110"/>
      <point x="42" y="-110" type="curve" smooth="yes"/>
    </contour>
    <contour>
      <point x="175" y="111"/>
      <point x="199" y="208"/>
      <point x="199" y="368" type="curve" smooth="yes"/>
      <point x="199" y="462" type="line"/>
      <point x="409" y="462" type="line"/>
      <point x="409" y="60" type="line"/>
      <point x="133" y="58" type="line"/>
    </contour>
  </outline>
</glyph>
<glyph name="uni0435" format="1">
  <advance width="546"/>
  <unicode hex="0435"/>
  <outline>
    <component base="e"/>
    <contour>
      <point x="273" y="520" type="move" name="top"/>
    </contour>
  </outline>
</glyph>
<glyph name="uni0436" format="1">
  <advance width="707"/>
  <unicode hex="0436"/>
  <outline>
    <contour>
      <point x="75" y="0" type="line" smooth="yes"/>
      <point x="83" y="0"/>
      <point x="90" y="5"/>
      <point x="93" y="12" type="curve" smooth="yes"/>
      <point x="134" y="106" type="line" smooth="yes"/>
      <point x="175" y="199"/>
      <point x="208" y="240"/>
      <point x="271" y="240" type="curve" smooth="yes"/>
      <point x="323" y="240" type="line"/>
      <point x="323" y="22" type="line" smooth="yes"/>
      <point x="323" y="9"/>
      <point x="332" y="0"/>
      <point x="345" y="0" type="curve" smooth="yes"/>
      <point x="362" y="0" type="line" smooth="yes"/>
      <point x="375" y="0"/>
      <point x="384" y="9"/>
      <point x="384" y="22" type="curve" smooth="yes"/>
      <point x="384" y="240" type="line"/>
      <point x="436" y="240" type="line" smooth="yes"/>
      <point x="499" y="240"/>
      <point x="533" y="199"/>
      <point x="573" y="106" type="curve" smooth="yes"/>
      <point x="614" y="12" type="line" smooth="yes"/>
      <point x="617" y="5"/>
      <point x="624" y="0"/>
      <point x="632" y="0" type="curve" smooth="yes"/>
      <point x="645" y="0" type="line" smooth="yes"/>
      <point x="665" y="0"/>
      <point x="677" y="19"/>
      <point x="669" y="37" type="curve" smooth="yes"/>
      <point x="629" y="130" type="line" smooth="yes"/>
      <point x="580" y="244"/>
      <point x="536" y="298"/>
      <point x="456" y="298" type="curve" smooth="yes"/>
      <point x="384" y="298" type="line"/>
      <point x="384" y="498" type="line" smooth="yes"/>
      <point x="384" y="511"/>
      <point x="375" y="520"/>
      <point x="362" y="520" type="curve" smooth="yes"/>
      <point x="345" y="520" type="line" smooth="yes"/>
      <point x="332" y="520"/>
      <point x="323" y="511"/>
      <point x="323" y="498" type="curve" smooth="yes"/>
      <point x="323" y="298" type="line"/>
      <point x="251" y="298" type="line" smooth="yes"/>
      <point x="171" y="298"/>
      <point x="127" y="244"/>
      <point x="78" y="130" type="curve" smooth="yes"/>
      <point x="38" y="37" type="line" smooth="yes"/>
      <point x="30" y="19"/>
      <point x="42" y="0"/>
      <point x="62" y="0" type="curve" smooth="yes"/>
    </contour>
    <contour>
      <point x="254" y="270" type="line"/>
      <point x="102" y="502" type="line" smooth="yes"/>
      <point x="94" y="514"/>
      <point x="86" y="520"/>
      <point x="73" y="520" type="curve"/>
      <point x="57" y="520" type="line" smooth="yes"/>
      <point x="44" y="520"/>
      <point x="37" y="513"/>
      <point x="37" y="502" type="curve" smooth="yes"/>
      <point x="37" y="493"/>
      <point x="43" y="485"/>
      <point x="50" y="475" type="curve" smooth="yes"/>
      <point x="209" y="236" type="line"/>
    </contour>
    <contour>
      <point x="498" y="236" type="line"/>
      <point x="657" y="475" type="line" smooth="yes"/>
      <point x="664" y="485"/>
      <point x="670" y="493"/>
      <point x="670" y="502" type="curve" smooth="yes"/>
      <point x="670" y="513"/>
      <point x="663" y="520"/>
      <point x="650" y="520" type="curve" smooth="yes"/>
      <point x="634" y="520" type="line"/>
      <point x="621" y="520"/>
      <point x="611" y="514"/>
      <point x="603" y="502" type="curve" smooth="yes"/>
      <point x="451" y="270" type="line"/>
    </contour>
  </outline>
</glyph>
<glyph name="uni0437" format="1">
  <advance width="507"/>
  <unicode hex="0437"/>
  <outline>
    <contour>
      <point x="362" y="-10"/>
      <point x="454" y="38"/>
      <point x="452" y="144" type="curve" smooth="yes"/>
      <point x="451" y="207"/>
      <point x="432" y="252"/>
      <point x="372" y="276" type="curve"/>
      <point x="419" y="300"/>
      <point x="432" y="330"/>
      <point x="432" y="385" type="curve" smooth="yes"/>
      <point x="432" y="444"/>
      <point x="386" y="530"/>
      <point x="246" y="530" type="curve" smooth="yes"/>
      <point x="130" y="530"/>
      <point x="63" y="463"/>
      <point x="63" y="379" type="curve" smooth="yes"/>
      <point x="63" y="367"/>
      <point x="72" y="359"/>
      <point x="84" y="359" type="curve"/>
      <point x="101" y="359" type="line" smooth="yes"/>
      <point x="113" y="359"/>
      <point x="121" y="364"/>
      <point x="125" y="380" type="curve" smooth="yes"/>
      <point x="138" y="440"/>
      <point x="167" y="472"/>
      <point x="246" y="472" type="curve" smooth="yes"/>
      <point x="341" y="472"/>
      <point x="371" y="422"/>
      <point x="371" y="375" type="curve" smooth="yes"/>
      <point x="371" y="320"/>
      <point x="335" y="298"/>
      <point x="275" y="298" type="curve" smooth="yes"/>
      <point x="228" y="298" type="line" smooth="yes"/>
      <point x="215" y="298"/>
      <point x="206" y="289"/>
      <point x="206" y="276" type="curve" smooth="yes"/>
      <point x="206" y="262" type="line" smooth="yes"/>
      <point x="206" y="249"/>
      <point x="215" y="240"/>
      <point x="228" y="240" type="curve" smooth="yes"/>
      <point x="282" y="240" type="line" smooth="yes"/>
      <point x="355" y="240"/>
      <point x="391" y="208"/>
      <point x="391" y="144" type="curve" smooth="yes"/>
      <point x="391" y="77"/>
      <point x="328" y="48"/>
      <point x="256" y="48" type="curve" smooth="yes"/>
      <point x="181" y="48"/>
      <point x="125" y="67"/>
      <point x="108" y="130" type="curve" smooth="yes"/>
      <point x="104" y="146"/>
      <point x="96" y="151"/>
      <point x="84" y="151" type="curve" smooth="yes"/>
      <point x="67" y="151" type="line" smooth="yes"/>
      <point x="55" y="151"/>
      <point x="46" y="143"/>
      <point x="46" y="131" type="curve" smooth="yes"/>
      <point x="46" y="76"/>
      <point x="100" y="-10"/>
      <point x="246" y="-10" type="curve" smooth="yes"/>
    </contour>
  </outline>
</glyph>
<glyph name="uni0438" format="1">
  <advance width="596"/>
  <unicode hex="0438"/>
  <outline>
    <contour>
      <point x="120" y="0" type="line" smooth="yes"/>
      <point x="133" y="0"/>
      <point x="141" y="8"/>
      <point x="146" y="15" type="curve" smooth="yes"/>
      <point x="475" y="446" type="line"/>
      <point x="454" y="441" type="line"/>
      <point x="454" y="22" type="line" smooth="yes"/>
      <point x="454" y="9"/>
      <point x="463" y="0"/>
      <point x="476" y="0" type="curve" smooth="yes"/>
      <point x="493" y="0" type="line" smooth="yes"/>
      <point x="506" y="0"/>
      <point x="515" y="9"/>
      <point x="515" y="22" type="curve" smooth="yes"/>
      <point x="515" y="501" type="line" smooth="yes"/>
      <point x="515" y="511"/>
      <point x="505" y="520"/>
      <point x="495" y="520" type="curve" smooth="yes"/>
      <point x="476" y="520" type="line" smooth="yes"/>
      <point x="463" y="520"/>
      <point x="456" y="513"/>
      <point x="450" y="505" type="curve" smooth="yes"/>
      <point x="124" y="78" type="line"/>
      <point x="142" y="49" type="line"/>
      <point x="142" y="498" type="line" smooth="yes"/>
      <point x="142" y="511"/>
      <point x="133" y="520"/>
      <point x="120" y="520" type="curve" smooth="yes"/>
      <point x="103" y="520" type="line" smooth="yes"/>
      <point x="90" y="520"/>
      <point x="81" y="511"/>
      <point x="81" y="498" type="curve" smooth="yes"/>
      <point x="81" y="20" type="line" smooth="yes"/>
      <point x="81" y="9"/>
      <point x="90" y="0"/>
      <point x="101" y="0" type="curve" smooth="yes"/>
    </contour>
    <contour>
      <point x="298" y="520" type="move" name="top"/>
    </contour>
    <contour>
      <point x="466" y="0" type="move" name="bottomright"/>
    </contour>
  </outline>
</glyph>
<glyph name="uni043A" format="1">
  <advance width="500"/>
  <unicode hex="043A"/>
  <outline>
    <contour>
      <point x="120" y="0" type="line" smooth="yes"/>
      <point x="133" y="0"/>
      <point x="142" y="9"/>
      <point x="142" y="22" type="curve" smooth="yes"/>
      <point x="142" y="238" type="line"/>
      <point x="216" y="238" type="line" smooth="yes"/>
      <point x="289" y="238"/>
      <point x="321" y="203"/>
      <point x="363" y="106" type="curve" smooth="yes"/>
      <point x="404" y="12" type="line" smooth="yes"/>
      <point x="407" y="5"/>
      <point x="414" y="0"/>
      <point x="422" y="0" type="curve" smooth="yes"/>
      <point x="435" y="0" type="line" smooth="yes"/>
      <point x="451" y="0"/>
      <point x="462" y="12"/>
      <point x="462" y="26" type="curve" smooth="yes"/>
      <point x="462" y="29"/>
      <point x="461" y="33"/>
      <point x="459" y="37" type="curve" smooth="yes"/>
      <point x="419" y="130" type="line" smooth="yes"/>
      <point x="369" y="247"/>
      <point x="314" y="298"/>
      <point x="216" y="298" type="curve" smooth="yes"/>
      <point x="142" y="298" type="line"/>
      <point x="142" y="498" type="line" smooth="yes"/>
      <point x="142" y="511"/>
      <point x="133" y="520"/>
      <point x="120" y="520" type="curve" smooth="yes"/>
      <point x="103" y="520" type="line" smooth="yes"/>
      <point x="90" y="520"/>
      <point x="81" y="511"/>
      <point x="81" y="498" type="curve" smooth="yes"/>
      <point x="81" y="22" type="line" smooth="yes"/>
      <point x="81" y="9"/>
      <point x="90" y="0"/>
      <point x="103" y="0" type="curve" smooth="yes"/>
    </contour>
    <contour>
      <point x="279" y="247" type="line"/>
      <point x="452" y="475" type="line" smooth="yes"/>
      <point x="459" y="485"/>
      <point x="465" y="493"/>
      <point x="465" y="502" type="curve" smooth="yes"/>
      <point x="465" y="513"/>
      <point x="458" y="520"/>
      <point x="445" y="520" type="curve" smooth="yes"/>
      <point x="429" y="520" type="line"/>
      <point x="416" y="520"/>
      <point x="408" y="515"/>
      <point x="398" y="502" type="curve" smooth="yes"/>
      <point x="229" y="281" type="line"/>
    </contour>
    <contour>
      <point x="260" y="520" type="move" name="top"/>
    </contour>
    <contour>
      <point x="440" y="0" type="move" name="bottomright"/>
    </contour>
  </outline>
</glyph>
<glyph name="uni043B" format="1">
  <advance width="561"/>
  <unicode hex="043B"/>
  <outline>
    <contour>
      <point x="149" y="0"/>
      <point x="211" y="108"/>
      <point x="211" y="368" type="curve" smooth="yes"/>
      <point x="211" y="462" type="line"/>
      <point x="419" y="462" type="line"/>
      <point x="419" y="22" type="line" smooth="yes"/>
      <point x="419" y="9"/>
      <point x="428" y="0"/>
      <point x="441" y="0" type="curve" smooth="yes"/>
      <point x="458" y="0" type="line" smooth="yes"/>
      <point x="471" y="0"/>
      <point x="480" y="9"/>
      <point x="480" y="22" type="curve" smooth="yes"/>
      <point x="480" y="498" type="line" smooth="yes"/>
      <point x="480" y="511"/>
      <point x="471" y="520"/>
      <point x="458" y="520" type="curve" smooth="yes"/>
      <point x="172" y="520" type="line" smooth="yes"/>
      <point x="159" y="520"/>
      <point x="150" y="511"/>
      <point x="150" y="498" type="curve" smooth="yes"/>
      <point x="150" y="375" type="line" smooth="yes"/>
      <point x="150" y="142"/>
      <point x="109" y="60"/>
      <point x="45" y="60" type="curve" smooth="yes"/>
      <point x="33" y="60"/>
      <point x="25" y="51"/>
      <point x="25" y="39" type="curve" smooth="yes"/>
      <point x="25" y="23" type="line" smooth="yes"/>
      <point x="25" y="10"/>
      <point x="35" y="0"/>
      <point x="48" y="0" type="curve" smooth="yes"/>
    </contour>
  </outline>
</glyph>
<glyph name="uni043C" format="1">
  <advance width="664"/>
  <unicode hex="043C"/>
  <outline>
    <contour>
      <point x="120" y="0" type="line" smooth="yes"/>
      <point x="133" y="0"/>
      <point x="142" y="9"/>
      <point x="142" y="22" type="curve" smooth="yes"/>
      <point x="142" y="433" type="line"/>
      <point x="118" y="433" type="line"/>
      <point x="288" y="113" type="line" smooth="yes"/>
      <point x="295" y="100"/>
      <point x="302" y="85"/>
      <point x="322" y="85" type="curve" smooth="yes"/>
      <point x="342" y="85" type="line" smooth="yes"/>
      <point x="362" y="85"/>
      <point x="369" y="100"/>
      <point x="376" y="113" type="curve" smooth="yes"/>
      <point x="551" y="452" type="line"/>
      <point x="522" y="452" type="line"/>
      <point x="522" y="22" type="line" smooth="yes"/>
      <point x="522" y="9"/>
      <point x="531" y="0"/>
      <point x="544" y="0" type="curve" smooth="yes"/>
      <point x="561" y="0" type="line" smooth="yes"/>
      <point x="574" y="0"/>
      <point x="583" y="9"/>
      <point x="583" y="22" type="curve" smooth="yes"/>
      <point x="583" y="501" type="line" smooth="yes"/>
      <point x="583" y="511"/>
      <point x="573" y="520"/>
      <point x="563" y="520" type="curve" smooth="yes"/>
      <point x="540" y="520" type="line" smooth="yes"/>
      <point x="529" y="520"/>
      <point x="522" y="514"/>
      <point x="517" y="505" type="curve" smooth="yes"/>
      <point x="332" y="155" type="line"/>
      <point x="147" y="505" type="line" smooth="yes"/>
      <point x="142" y="514"/>
      <point x="135" y="520"/>
      <point x="124" y="520" type="curve" smooth="yes"/>
      <point x="101" y="520" type="line" smooth="yes"/>
      <point x="91" y="520"/>
      <point x="81" y="511"/>
      <point x="81" y="501" type="curve" smooth="yes"/>
      <point x="81" y="22" type="line" smooth="yes"/>
      <point x="81" y="9"/>
      <point x="90" y="0"/>
      <point x="103" y="0" type="curve" smooth="yes"/>
    </contour>
  </outline>
</glyph>
<glyph name="uni043F" format="1">
  <advance width="566"/>
  <unicode hex="043F"/>
  <outline>
    <contour>
      <point x="120" y="0" type="line" smooth="yes"/>
      <point x="133" y="0"/>
      <point x="142" y="9"/>
      <point x="142" y="22" type="curve" smooth="yes"/>
      <point x="142" y="462" type="line"/>
      <point x="424" y="462" type="line"/>
      <point x="424" y="22" type="line" smooth="yes"/>
      <point x="424" y="9"/>
      <point x="433" y="0"/>
      <point x="446" y="0" type="curve" smooth="yes"/>
      <point x="463" y="0" type="line" smooth="yes"/>
      <point x="476" y="0"/>
      <point x="485" y="9"/>
      <point x="485" y="22" type="curve" smooth="yes"/>
      <point x="485" y="498" type="line" smooth="yes"/>
      <point x="485" y="511"/>
      <point x="476" y="520"/>
      <point x="463" y="520" type="curve" smooth="yes"/>
      <point x="103" y="520" type="line" smooth="yes"/>
      <point x="90" y="520"/>
      <point x="81" y="511"/>
      <point x="81" y="498" type="curve" smooth="yes"/>
      <point x="81" y="22" type="line" smooth="yes"/>
      <point x="81" y="9"/>
      <point x="90" y="0"/>
      <point x="103" y="0" type="curve"/>
    </contour>
  </outline>
</glyph>
<glyph name="uni0443" format="1">
  <advance width="529"/>
  <unicode hex="0443"/>
  <outline>
    <contour>
      <point x="127" y="-190" type="line" smooth="yes"/>
      <point x="223" y="-190"/>
      <point x="266" y="-50"/>
      <point x="302" y="34" type="curve" smooth="yes"/>
      <point x="492" y="480" type="line" smooth="yes"/>
      <point x="496" y="490"/>
      <point x="498" y="495"/>
      <point x="498" y="500" type="curve" smooth="yes"/>
      <point x="498" y="511"/>
      <point x="489" y="520"/>
      <point x="478" y="520" type="curve" smooth="yes"/>
      <point x="460" y="520" type="line" smooth="yes"/>
      <point x="447" y="520"/>
      <point x="441" y="514"/>
      <point x="437" y="505" type="curve" smooth="yes"/>
      <point x="213" y="-22" type="line" smooth="yes"/>
      <point x="178" y="-106"/>
      <point x="164" y="-132"/>
      <point x="116" y="-132" type="curve" smooth="yes"/>
      <point x="93" y="-132" type="line" smooth="yes"/>
      <point x="80" y="-132"/>
      <point x="71" y="-141"/>
      <point x="71" y="-154" type="curve"/>
      <point x="71" y="-168" type="line" smooth="yes"/>
      <point x="71" y="-181"/>
      <point x="80" y="-190"/>
      <point x="93" y="-190" type="curve" smooth="yes"/>
    </contour>
    <contour>
      <point x="273" y="94" type="line"/>
      <point x="97" y="505" type="line" smooth="yes"/>
      <point x="93" y="513"/>
      <point x="87" y="520"/>
      <point x="74" y="520" type="curve" smooth="yes"/>
      <point x="55" y="520" type="line" smooth="yes"/>
      <point x="44" y="520"/>
      <point x="35" y="511"/>
      <point x="35" y="500" type="curve" smooth="yes"/>
      <point x="35" y="495"/>
      <point x="37" y="490"/>
      <point x="41" y="480" type="curve" smooth="yes"/>
      <point x="241" y="17" type="line"/>
    </contour>
    <contour>
      <point x="262" y="520" type="move" name="top"/>
    </contour>
  </outline>
</glyph>
<glyph name="uni0444" format="1">
  <advance width="679"/>
  <unicode hex="0444"/>
  <outline>
    <contour>
      <point x="348" y="-190" type="line" smooth="yes"/>
      <point x="361" y="-190"/>
      <point x="370" y="-181"/>
      <point x="370" y="-168" type="curve" smooth="yes"/>
      <point x="370" y="0" type="line"/>
      <point x="544" y="0"/>
      <point x="616" y="99"/>
      <point x="622" y="228" type="curve" smooth="yes"/>
      <point x="623" y="248"/>
      <point x="623" y="272"/>
      <point x="622" y="292" type="curve" smooth="yes"/>
      <point x="616" y="421"/>
      <point x="544" y="520"/>
      <point x="370" y="520" type="curve"/>
      <point x="370" y="688" type="line" smooth="yes"/>
      <point x="370" y="701"/>
      <point x="361" y="710"/>
      <point x="348" y="710" type="curve" smooth="yes"/>
      <point x="331" y="710" type="line" smooth="yes"/>
      <point x="318" y="710"/>
      <point x="309" y="701"/>
      <point x="309" y="688" type="curve" smooth="yes"/>
      <point x="309" y="520" type="line"/>
      <point x="135" y="520"/>
      <point x="63" y="421"/>
      <point x="57" y="292" type="curve" smooth="yes"/>
      <point x="56" y="272"/>
      <point x="56" y="248"/>
      <point x="57" y="228" type="curve" smooth="yes"/>
      <point x="63" y="99"/>
      <point x="135" y="0"/>
      <point x="309" y="0" type="curve"/>
      <point x="309" y="-168" type="line" smooth="yes"/>
      <point x="309" y="-181"/>
      <point x="318" y="-190"/>
      <point x="331" y="-190" type="curve" smooth="yes"/>
    </contour>
    <contour>
      <point x="186" y="58"/>
      <point x="124" y="119"/>
      <point x="118" y="233" type="curve" smooth="yes"/>
      <point x="117" y="253"/>
      <point x="117" y="267"/>
      <point x="118" y="287" type="curve" smooth="yes"/>
      <point x="124" y="401"/>
      <point x="186" y="462"/>
      <point x="309" y="462" type="curve"/>
      <point x="309" y="58" type="line"/>
    </contour>
    <contour>
      <point x="370" y="462" type="line"/>
      <point x="493" y="462"/>
      <point x="555" y="401"/>
      <point x="561" y="287" type="curve" smooth="yes"/>
      <point x="562" y="267"/>
      <point x="562" y="253"/>
      <point x="561" y="233" type="curve" smooth="yes"/>
      <point x="555" y="119"/>
      <point x="493" y="58"/>
      <point x="370" y="58" type="curve"/>
    </contour>
  </outline>
</glyph>
<glyph name="uni0446" format="1">
  <advance width="576"/>
  <unicode hex="0446"/>
  <outline>
    <contour>
      <point x="524" y="-130" type="line" smooth="yes"/>
      <point x="537" y="-130"/>
      <point x="546" y="-121"/>
      <point x="546" y="-108" type="curve" smooth="yes"/>
      <point x="546" y="36" type="line" smooth="yes"/>
      <point x="546" y="49"/>
      <point x="537" y="58"/>
      <point x="524" y="58" type="curve" smooth="yes"/>
      <point x="474" y="58" type="line"/>
      <point x="475" y="498" type="line" smooth="yes"/>
      <point x="475" y="511"/>
      <point x="466" y="520"/>
      <point x="453" y="520" type="curve" smooth="yes"/>
      <point x="436" y="520" type="line" smooth="yes"/>
      <point x="423" y="520"/>
      <point x="414" y="511"/>
      <point x="414" y="498" type="curve" smooth="yes"/>
      <point x="414" y="58" type="line"/>
      <point x="142" y="58" type="line"/>
      <point x="142" y="498" type="line"/>
      <point x="142" y="511"/>
      <point x="133" y="520"/>
      <point x="120" y="520" type="curve" smooth="yes"/>
      <point x="103" y="520" type="line" smooth="yes"/>
      <point x="90" y="520"/>
      <point x="81" y="511"/>
      <point x="81" y="498" type="curve" smooth="yes"/>
      <point x="81" y="22" type="line" smooth="yes"/>
      <point x="81" y="9"/>
      <point x="90" y="0"/>
      <point x="103" y="0" type="curve" smooth="yes"/>
      <point x="485" y="0" type="line"/>
      <point x="485" y="-108" type="line" smooth="yes"/>
      <point x="485" y="-121"/>
      <point x="494" y="-130"/>
      <point x="507" y="-130" type="curve" smooth="yes"/>
    </contour>
  </outline>
</glyph>
<glyph name="uni0447" format="1">
  <advance width="510"/>
  <unicode hex="0447"/>
  <outline>
    <contour>
      <point x="407" y="0" type="line" smooth="yes"/>
      <point x="420" y="0"/>
      <point x="429" y="9"/>
      <point x="429" y="22" type="curve" smooth="yes"/>
      <point x="429" y="498" type="line" smooth="yes"/>
      <point x="429" y="511"/>
      <point x="420" y="520"/>
      <point x="407" y="520" type="curve" smooth="yes"/>
      <point x="390" y="520" type="line" smooth="yes"/>
      <point x="377" y="520"/>
      <point x="368" y="511"/>
      <point x="368" y="498" type="curve" smooth="yes"/>
      <point x="368" y="311" type="line" smooth="yes"/>
      <point x="368" y="250"/>
      <point x="306" y="231"/>
      <point x="212" y="231" type="curve" smooth="yes"/>
      <point x="139" y="231"/>
      <point x="99" y="261"/>
      <point x="99" y="327" type="curve" smooth="yes"/>
      <point x="99" y="498" type="line" smooth="yes"/>
      <point x="99" y="511"/>
      <point x="90" y="520"/>
      <point x="77" y="520" type="curve" smooth="yes"/>
      <point x="60" y="520" type="line" smooth="yes"/>
      <point x="47" y="520"/>
      <point x="38" y="511"/>
      <point x="38" y="498" type="curve" smooth="yes"/>
      <point x="38" y="322" type="line" smooth="yes"/>
      <point x="38" y="217"/>
      <point x="104" y="173"/>
      <point x="208" y="173" type="curve" smooth="yes"/>
      <point x="277" y="173"/>
      <point x="330" y="188"/>
      <point x="368" y="226" type="curve"/>
      <point x="368" y="22" type="line" smooth="yes"/>
      <point x="368" y="9"/>
      <point x="377" y="0"/>
      <point x="390" y="0" type="curve" smooth="yes"/>
    </contour>
  </outline>
</glyph>
<glyph name="uni0448" format="1">
  <advance width="749"/>
  <unicode hex="0448"/>
  <outline>
    <contour>
      <point x="646" y="0" type="line" smooth="yes"/>
      <point x="659" y="0"/>
      <point x="668" y="9"/>
      <point x="668" y="22" type="curve" smooth="yes"/>
      <point x="668" y="498" type="line" smooth="yes"/>
      <point x="668" y="511"/>
      <point x="659" y="520"/>
      <point x="646" y="520" type="curve" smooth="yes"/>
      <point x="629" y="520" type="line" smooth="yes"/>
      <point x="616" y="520"/>
      <point x="607" y="511"/>
      <point x="607" y="498" type="curve" smooth="yes"/>
      <point x="607" y="58" type="line"/>
      <point x="405" y="58" type="line"/>
      <point x="405" y="498" type="line" smooth="yes"/>
      <point x="405" y="511"/>
      <point x="396" y="520"/>
      <point x="383" y="520" type="curve" smooth="yes"/>
      <point x="366" y="520" type="line" smooth="yes"/>
      <point x="353" y="520"/>
      <point x="344" y="511"/>
      <point x="344" y="498" type="curve" smooth="yes"/>
      <point x="344" y="58" type="line"/>
      <point x="142" y="58" type="line"/>
      <point x="142" y="498" type="line" smooth="yes"/>
      <point x="142" y="511"/>
      <point x="133" y="520"/>
      <point x="120" y="520" type="curve" smooth="yes"/>
      <point x="103" y="520" type="line" smooth="yes"/>
      <point x="90" y="520"/>
      <point x="81" y="511"/>
      <point x="81" y="498" type="curve" smooth="yes"/>
      <point x="81" y="22" type="line" smooth="yes"/>
      <point x="81" y="9"/>
      <point x="90" y="0"/>
      <point x="103" y="0" type="curve" smooth="yes"/>
    </contour>
  </outline>
</glyph>
<glyph name="uni0449" format="1">
  <advance width="770"/>
  <unicode hex="0449"/>
  <outline>
    <contour>
      <point x="718" y="-130" type="line" smooth="yes"/>
      <point x="731" y="-130"/>
      <point x="740" y="-121"/>
      <point x="740" y="-108" type="curve" smooth="yes"/>
      <point x="740" y="36" type="line" smooth="yes"/>
      <point x="740" y="49"/>
      <point x="731" y="58"/>
      <point x="718" y="58" type="curve" smooth="yes"/>
      <point x="668" y="58" type="line"/>
      <point x="668" y="498" type="line" smooth="yes"/>
      <point x="668" y="511"/>
      <point x="659" y="520"/>
      <point x="646" y="520" type="curve" smooth="yes"/>
      <point x="629" y="520" type="line" smooth="yes"/>
      <point x="616" y="520"/>
      <point x="607" y="511"/>
      <point x="607" y="498" type="curve" smooth="yes"/>
      <point x="607" y="58" type="line"/>
      <point x="405" y="58" type="line"/>
      <point x="405" y="498" type="line" smooth="yes"/>
      <point x="405" y="511"/>
      <point x="396" y="520"/>
      <point x="383" y="520" type="curve" smooth="yes"/>
      <point x="366" y="520" type="line" smooth="yes"/>
      <point x="353" y="520"/>
      <point x="344" y="511"/>
      <point x="344" y="498" type="curve" smooth="yes"/>
      <point x="344" y="58" type="line"/>
      <point x="142" y="58" type="line"/>
      <point x="142" y="498" type="line" smooth="yes"/>
      <point x="142" y="511"/>
      <point x="133" y="520"/>
      <point x="120" y="520" type="curve" smooth="yes"/>
      <point x="103" y="520" type="line" smooth="yes"/>
      <point x="90" y="520"/>
      <point x="81" y="511"/>
      <point x="81" y="498" type="curve" smooth="yes"/>
      <point x="81" y="22" type="line" smooth="yes"/>
      <point x="81" y="9"/>
      <point x="90" y="0"/>
      <point x="103" y="0" type="curve" smooth="yes"/>
      <point x="679" y="0" type="line"/>
      <point x="679" y="-108" type="line" smooth="yes"/>
      <point x="679" y="-121"/>
      <point x="688" y="-130"/>
      <point x="701" y="-130" type="curve" smooth="yes"/>
    </contour>
  </outline>
</glyph>
<glyph name="uni044A" format="1">
  <advance width="539"/>
  <unicode hex="044A"/>
  <outline>
    <contour>
      <point x="310" y="0" type="line" smooth="yes"/>
      <point x="450" y="0"/>
      <point x="514" y="51"/>
      <point x="514" y="169" type="curve" smooth="yes"/>
      <point x="514" y="277"/>
      <point x="461" y="346"/>
      <point x="325" y="346" type="curve" smooth="yes"/>
      <point x="225" y="346" type="line"/>
      <point x="225" y="498" type="line" smooth="yes"/>
      <point x="225" y="511"/>
      <point x="216" y="520"/>
      <point x="203" y="520" type="curve" smooth="yes"/>
      <point x="35" y="520" type="line" smooth="yes"/>
      <point x="22" y="520"/>
      <point x="13" y="511"/>
      <point x="13" y="498" type="curve" smooth="yes"/>
      <point x="13" y="484" type="line" smooth="yes"/>
      <point x="13" y="471"/>
      <point x="22" y="462"/>
      <point x="35" y="462" type="curve" smooth="yes"/>
      <point x="164" y="462" type="line"/>
      <point x="164" y="22" type="line" smooth="yes"/>
      <point x="164" y="9"/>
      <point x="173" y="0"/>
      <point x="186" y="0" type="curve" smooth="yes"/>
    </contour>
    <contour>
      <point x="225" y="288" type="line"/>
      <point x="319" y="288" type="line" smooth="yes"/>
      <point x="415" y="288"/>
      <point x="453" y="249"/>
      <point x="453" y="169" type="curve" smooth="yes"/>
      <point x="453" y="86"/>
      <point x="412" y="58"/>
      <point x="319" y="58" type="curve" smooth="yes"/>
      <point x="225" y="58" type="line"/>
    </contour>
  </outline>
</glyph>
<glyph name="uni044B" format="1">
  <advance width="639"/>
  <unicode hex="044B"/>
  <outline>
    <contour>
      <point x="217" y="0" type="line" smooth="yes"/>
      <point x="357" y="0"/>
      <point x="421" y="51"/>
      <point x="421" y="169" type="curve" smooth="yes"/>
      <point x="421" y="277"/>
      <point x="368" y="346"/>
      <point x="232" y="346" type="curve" smooth="yes"/>
      <point x="142" y="346" type="line"/>
      <point x="142" y="498" type="line"/>
      <point x="142" y="511"/>
      <point x="133" y="520"/>
      <point x="120" y="520" type="curve" smooth="yes"/>
      <point x="103" y="520" type="line" smooth="yes"/>
      <point x="90" y="520"/>
      <point x="81" y="511"/>
      <point x="81" y="498" type="curve" smooth="yes"/>
      <point x="81" y="22" type="line" smooth="yes"/>
      <point x="81" y="9"/>
      <point x="90" y="0"/>
      <point x="103" y="0" type="curve" smooth="yes"/>
    </contour>
    <contour>
      <point x="142" y="288" type="line"/>
      <point x="226" y="288" type="line" smooth="yes"/>
      <point x="322" y="288"/>
      <point x="360" y="249"/>
      <point x="360" y="169" type="curve" smooth="yes"/>
      <point x="360" y="86"/>
      <point x="319" y="58"/>
      <point x="226" y="58" type="curve" smooth="yes"/>
      <point x="142" y="58" type="line"/>
    </contour>
    <component base="dotlessi" xOffset="416"/>
  </outline>
</glyph>
<glyph name="uni044C" format="1">
  <advance width="456"/>
  <unicode hex="044C"/>
  <outline>
    <contour>
      <point x="227" y="0" type="line" smooth="yes"/>
      <point x="367" y="0"/>
      <point x="431" y="51"/>
      <point x="431" y="169" type="curve" smooth="yes"/>
      <point x="431" y="277"/>
      <point x="378" y="346"/>
      <point x="242" y="346" type="curve" smooth="yes"/>
      <point x="142" y="346" type="line"/>
      <point x="142" y="498" type="line"/>
      <point x="142" y="511"/>
      <point x="133" y="520"/>
      <point x="120" y="520" type="curve" smooth="yes"/>
      <point x="103" y="520" type="line" smooth="yes"/>
      <point x="90" y="520"/>
      <point x="81" y="511"/>
      <point x="81" y="498" type="curve" smooth="yes"/>
      <point x="81" y="22" type="line" smooth="yes"/>
      <point x="81" y="9"/>
      <point x="90" y="0"/>
      <point x="103" y="0" type="curve" smooth="yes"/>
    </contour>
    <contour>
      <point x="142" y="288" type="line"/>
      <point x="236" y="288" type="line" smooth="yes"/>
      <point x="332" y="288"/>
      <point x="370" y="249"/>
      <point x="370" y="169" type="curve" smooth="yes"/>
      <point x="370" y="86"/>
      <point x="329" y="58"/>
      <point x="236" y="58" type="curve" smooth="yes"/>
      <point x="142" y="58" type="line"/>
    </contour>
  </outline>
</glyph>
<glyph name="uni044E" format="1">
  <advance width="763"/>
  <unicode hex="044E"/>
  <outline>
    <contour>
      <point x="277" y="295" type="line"/>
      <point x="142" y="295" type="line"/>
      <point x="142" y="498" type="line" smooth="yes"/>
      <point x="142" y="511"/>
      <point x="133" y="520"/>
      <point x="120" y="520" type="curve" smooth="yes"/>
      <point x="103" y="520" type="line" smooth="yes"/>
      <point x="90" y="520"/>
      <point x="81" y="511"/>
      <point x="81" y="498" type="curve" smooth="yes"/>
      <point x="81" y="22" type="line" smooth="yes"/>
      <point x="81" y="9"/>
      <point x="90" y="0"/>
      <point x="103" y="0" type="curve" smooth="yes"/>
      <point x="120" y="0" type="line" smooth="yes"/>
      <point x="133" y="0"/>
      <point x="142" y="9"/>
      <point x="142" y="22" type="curve" smooth="yes"/>
      <point x="142" y="237" type="line"/>
      <point x="277" y="237" type="line"/>
    </contour>
    <component base="o" xOffset="205"/>
  </outline>
</glyph>
<glyph name="uni044F" format="1">
  <advance width="504"/>
  <unicode hex="044F"/>
  <outline>
    <contour>
      <point x="401" y="0" type="line" smooth="yes"/>
      <point x="414" y="0"/>
      <point x="423" y="9"/>
      <point x="423" y="22" type="curve" smooth="yes"/>
      <point x="423" y="498" type="line" smooth="yes"/>
      <point x="423" y="511"/>
      <point x="414" y="520"/>
      <point x="401" y="520" type="curve" smooth="yes"/>
      <point x="257" y="520" type="line" smooth="yes"/>
      <point x="124" y="520"/>
      <point x="63" y="472"/>
      <point x="63" y="361" type="curve" smooth="yes"/>
      <point x="63" y="269"/>
      <point x="115" y="199"/>
      <point x="234" y="199" type="curve"/>
      <point x="234" y="194" type="line"/>
      <point x="362" y="194" type="line"/>
      <point x="362" y="22" type="line"/>
      <point x="362" y="9"/>
      <point x="371" y="0"/>
      <point x="384" y="0" type="curve" smooth="yes"/>
    </contour>
    <contour>
      <point x="88" y="0" type="line"/>
      <point x="99" y="0"/>
      <point x="109" y="8"/>
      <point x="115" y="15" type="curve"/>
      <point x="256" y="216" type="line"/>
      <point x="181" y="216" type="line"/>
      <point x="58" y="40" type="line"/>
      <point x="51" y="32"/>
      <point x="50" y="25"/>
      <point x="50" y="20" type="curve" smooth="yes"/>
      <point x="50" y="9"/>
      <point x="59" y="0"/>
      <point x="70" y="0" type="curve"/>
    </contour>
    <contour>
      <point x="159" y="252"/>
      <point x="124" y="298"/>
      <point x="124" y="361" type="curve" smooth="yes"/>
      <point x="124" y="437"/>
      <point x="162" y="462"/>
      <point x="248" y="462" type="curve" smooth="yes"/>
      <point x="362" y="462" type="line"/>
      <point x="362" y="252" type="line"/>
      <point x="238" y="252" type="line" smooth="yes"/>
    </contour>
  </outline>
</glyph>
<glyph name="uni0452" format="1">
  <advance width="554"/>
  <unicode hex="0452"/>
  <outline>
    <contour>
      <point x="273" y="-190" type="line"/>
      <point x="468" y="-190"/>
      <point x="514" y="-46"/>
      <point x="514" y="138" type="curve"/>
      <point x="514" y="246" type="line"/>
      <point x="514" y="373"/>
      <point x="446" y="470"/>
      <point x="310" y="470" type="curve" smooth="yes"/>
      <point x="224" y="470"/>
      <point x="178" y="438"/>
      <point x="142" y="391" type="curve"/>
      <point x="142" y="541" type="line"/>
      <point x="330" y="541" type="line"/>
      <point x="343" y="541"/>
      <point x="352" y="550"/>
      <point x="352" y="563" type="curve"/>
      <point x="352" y="577" type="line"/>
      <point x="352" y="590"/>
      <point x="343" y="599"/>
      <point x="330" y="599" type="curve"/>
      <point x="142" y="599" type="line"/>
      <point x="142" y="688" type="line"/>
      <point x="142" y="701"/>
      <point x="133" y="710"/>
      <point x="120" y="710" type="curve"/>
      <point x="103" y="710" type="line"/>
      <point x="90" y="710"/>
      <point x="81" y="701"/>
      <point x="81" y="688" type="curve"/>
      <point x="81" y="599" type="line"/>
      <point x="23" y="599" type="line"/>
      <point x="10" y="599"/>
      <point x="1" y="590"/>
      <point x="1" y="577" type="curve"/>
      <point x="1" y="563" type="line"/>
      <point x="1" y="550"/>
      <point x="10" y="541"/>
      <point x="23" y="541" type="curve"/>
      <point x="81" y="541" type="line"/>
      <point x="81" y="22" type="line"/>
      <point x="81" y="9"/>
      <point x="90" y="0"/>
      <point x="103" y="0" type="curve"/>
      <point x="120" y="0" type="line"/>
      <point x="133" y="0"/>
      <point x="142" y="9"/>
      <point x="142" y="22" type="curve"/>
      <point x="142" y="241" type="line"/>
      <point x="142" y="348"/>
      <point x="205" y="412"/>
      <point x="300" y="412" type="curve" smooth="yes"/>
      <point x="400" y="412"/>
      <point x="453" y="347"/>
      <point x="453" y="241" type="curve"/>
      <point x="453" y="138" type="line"/>
      <point x="453" y="-12"/>
      <point x="435" y="-132"/>
      <point x="273" y="-132" type="curve"/>
      <point x="269" y="-132" type="line"/>
      <point x="256" y="-132"/>
      <point x="247" y="-141"/>
      <point x="247" y="-154" type="curve"/>
      <point x="247" y="-168" type="line"/>
      <point x="247" y="-181"/>
      <point x="256" y="-190"/>
      <point x="269" y="-190" type="curve"/>
    </contour>
  </outline>
</glyph>
<glyph name="uni0459" format="1">
  <advance width="744"/>
  <unicode hex="0459"/>
  <outline>
    <contour>
      <point x="515" y="0" type="line" smooth="yes"/>
      <point x="655" y="0"/>
      <point x="719" y="51"/>
      <point x="719" y="169" type="curve" smooth="yes"/>
      <point x="719" y="277"/>
      <point x="666" y="346"/>
      <point x="530" y="346" type="curve" smooth="yes"/>
      <point x="460" y="346" type="line"/>
      <point x="460" y="498" type="line" smooth="yes"/>
      <point x="460" y="511"/>
      <point x="451" y="520"/>
      <point x="438" y="520" type="curve" smooth="yes"/>
      <point x="182" y="520" type="line" smooth="yes"/>
      <point x="169" y="520"/>
      <point x="160" y="511"/>
      <point x="160" y="498" type="curve" smooth="yes"/>
      <point x="160" y="375" type="line" smooth="yes"/>
      <point x="160" y="142"/>
      <point x="113" y="72"/>
      <point x="45" y="61" type="curve" smooth="yes"/>
      <point x="33" y="59"/>
      <point x="25" y="52"/>
      <point x="25" y="40" type="curve" smooth="yes"/>
      <point x="25" y="24" type="line" smooth="yes"/>
      <point x="25" y="11"/>
      <point x="35" y="0"/>
      <point x="48" y="1" type="curve" smooth="yes"/>
      <point x="155" y="9"/>
      <point x="220" y="108"/>
      <point x="220" y="368" type="curve" smooth="yes"/>
      <point x="220" y="462" type="line"/>
      <point x="399" y="462" type="line"/>
      <point x="399" y="22" type="line" smooth="yes"/>
      <point x="399" y="9"/>
      <point x="408" y="0"/>
      <point x="421" y="0" type="curve" smooth="yes"/>
    </contour>
    <contour>
      <point x="460" y="288" type="line"/>
      <point x="524" y="288" type="line" smooth="yes"/>
      <point x="620" y="288"/>
      <point x="658" y="249"/>
      <point x="658" y="169" type="curve" smooth="yes"/>
      <point x="658" y="86"/>
      <point x="617" y="58"/>
      <point x="524" y="58" type="curve" smooth="yes"/>
      <point x="460" y="58" type="line"/>
    </contour>
  </outline>
</glyph>
<glyph name="uni045A" format="1">
  <advance width="759"/>
  <unicode hex="045A"/>
  <outline>
    <contour>
      <point x="120" y="0" type="line" smooth="yes"/>
      <point x="133" y="0"/>
      <point x="142" y="9"/>
      <point x="142" y="22" type="curve" smooth="yes"/>
      <point x="142" y="237" type="line"/>
      <point x="414" y="237" type="line"/>
      <point x="414" y="22" type="line" smooth="yes"/>
      <point x="414" y="9"/>
      <point x="423" y="0"/>
      <point x="436" y="0" type="curve" smooth="yes"/>
      <point x="530" y="0" type="line" smooth="yes"/>
      <point x="670" y="0"/>
      <point x="734" y="51"/>
      <point x="734" y="169" type="curve" smooth="yes"/>
      <point x="734" y="277"/>
      <point x="681" y="346"/>
      <point x="545" y="346" type="curve" smooth="yes"/>
      <point x="475" y="346" type="line"/>
      <point x="475" y="498" type="line" smooth="yes"/>
      <point x="475" y="511"/>
      <point x="466" y="520"/>
      <point x="453" y="520" type="curve" smooth="yes"/>
      <point x="436" y="520" type="line" smooth="yes"/>
      <point x="423" y="520"/>
      <point x="414" y="511"/>
      <point x="414" y="498" type="curve" smooth="yes"/>
      <point x="414" y="295" type="line"/>
      <point x="142" y="295" type="line"/>
      <point x="142" y="498" type="line" smooth="yes"/>
      <point x="142" y="511"/>
      <point x="133" y="520"/>
      <point x="120" y="520" type="curve" smooth="yes"/>
      <point x="103" y="520" type="line" smooth="yes"/>
      <point x="90" y="520"/>
      <point x="81" y="511"/>
      <point x="81" y="498" type="curve" smooth="yes"/>
      <point x="81" y="22" type="line" smooth="yes"/>
      <point x="81" y="9"/>
      <point x="90" y="0"/>
      <point x="103" y="0" type="curve" smooth="yes"/>
    </contour>
    <contour>
      <point x="475" y="288" type="line"/>
      <point x="539" y="288" type="line" smooth="yes"/>
      <point x="635" y="288"/>
      <point x="673" y="249"/>
      <point x="673" y="169" type="curve" smooth="yes"/>
      <point x="673" y="86"/>
      <point x="632" y="58"/>
      <point x="539" y="58" type="curve" smooth="yes"/>
      <point x="475" y="58" type="line"/>
    </contour>
  </outline>
</glyph>
<glyph name="uni045B" format="1">
  <advance width="590"/>
  <unicode hex="045B"/>
  <outline>
    <contour>
      <point x="120" y="0" type="line" smooth="yes"/>
      <point x="133" y="0"/>
      <point x="142" y="9"/>
      <point x="142" y="22" type="curve" smooth="yes"/>
      <point x="142" y="241" type="line" smooth="yes"/>
      <point x="142" y="348"/>
      <point x="205" y="412"/>
      <point x="300" y="412" type="curve" smooth="yes"/>
      <point x="400" y="412"/>
      <point x="453" y="347"/>
      <point x="453" y="241" type="curve" smooth="yes"/>
      <point x="453" y="22" type="line" smooth="yes"/>
      <point x="453" y="9"/>
      <point x="462" y="0"/>
      <point x="475" y="0" type="curve" smooth="yes"/>
      <point x="492" y="0" type="line" smooth="yes"/>
      <point x="505" y="0"/>
      <point x="514" y="9"/>
      <point x="514" y="22" type="curve" smooth="yes"/>
      <point x="514" y="246" type="line" smooth="yes"/>
      <point x="514" y="373"/>
      <point x="446" y="470"/>
      <point x="310" y="470" type="curve" smooth="yes"/>
      <point x="224" y="470"/>
      <point x="178" y="438"/>
      <point x="142" y="391" type="curve"/>
      <point x="142" y="541" type="line"/>
      <point x="330" y="541" type="line" smooth="yes"/>
      <point x="343" y="541"/>
      <point x="352" y="550"/>
      <point x="352" y="563" type="curve" smooth="yes"/>
      <point x="352" y="577" type="line" smooth="yes"/>
      <point x="352" y="590"/>
      <point x="343" y="599"/>
      <point x="330" y="599" type="curve" smooth="yes"/>
      <point x="142" y="599" type="line"/>
      <point x="142" y="688" type="line" smooth="yes"/>
      <point x="142" y="701"/>
      <point x="133" y="710"/>
      <point x="120" y="710" type="curve" smooth="yes"/>
      <point x="103" y="710" type="line" smooth="yes"/>
      <point x="90" y="710"/>
      <point x="81" y="701"/>
      <point x="81" y="688" type="curve" smooth="yes"/>
      <point x="81" y="599" type="line"/>
      <point x="23" y="599" type="line" smooth="yes"/>
      <point x="10" y="599"/>
      <point x="1" y="590"/>
      <point x="1" y="577" type="curve" smooth="yes"/>
      <point x="1" y="563" type="line" smooth="yes"/>
      <point x="1" y="550"/>
      <point x="10" y="541"/>
      <point x="23" y="541" type="curve" smooth="yes"/>
      <point x="81" y="541" type="line"/>
      <point x="81" y="22" type="line" smooth="yes"/>
      <point x="81" y="9"/>
      <point x="90" y="0"/>
      <point x="103" y="0" type="curve" smooth="yes"/>
    </contour>
  </outline>
</glyph>
<glyph name="uni045F" format="1">
  <advance width="556"/>
  <unicode hex="045F"/>
  <outline>
    <contour>
      <point x="286" y="-130" type="line" smooth="yes"/>
      <point x="299" y="-130"/>
      <point x="308" y="-121"/>
      <point x="308" y="-108" type="curve" smooth="yes"/>
      <point x="308" y="0" type="line"/>
      <point x="453" y="0" type="line" smooth="yes"/>
      <point x="466" y="0"/>
      <point x="475" y="9"/>
      <point x="475" y="22" type="curve"/>
      <point x="475" y="498" type="line" smooth="yes"/>
      <point x="475" y="511"/>
      <point x="466" y="520"/>
      <point x="453" y="520" type="curve" smooth="yes"/>
      <point x="436" y="520" type="line" smooth="yes"/>
      <point x="423" y="520"/>
      <point x="414" y="511"/>
      <point x="414" y="498" type="curve" smooth="yes"/>
      <point x="414" y="58" type="line"/>
      <point x="142" y="58" type="line"/>
      <point x="142" y="498" type="line" smooth="yes"/>
      <point x="142" y="511"/>
      <point x="133" y="520"/>
      <point x="120" y="520" type="curve" smooth="yes"/>
      <point x="103" y="520" type="line" smooth="yes"/>
      <point x="90" y="520"/>
      <point x="81" y="511"/>
      <point x="81" y="498" type="curve" smooth="yes"/>
      <point x="81" y="22" type="line" smooth="yes"/>
      <point x="81" y="9"/>
      <point x="90" y="0"/>
      <point x="103" y="0" type="curve" smooth="yes"/>
      <point x="247" y="0" type="line"/>
      <point x="247" y="-108" type="line" smooth="yes"/>
      <point x="247" y="-121"/>
      <point x="256" y="-130"/>
      <point x="269" y="-130" type="curve" smooth="yes"/>
    </contour>
  </outline>
</glyph>
<glyph name="uni0462" format="1">
  <advance width="640"/>
  <unicode hex="0462"/>
  <outline>
    <contour>
      <point x="417" y="530" type="line"/>
      <point x="431" y="530"/>
      <point x="440" y="539"/>
      <point x="440" y="552" type="curve" smooth="yes"/>
      <point x="440" y="567" type="line" smooth="yes"/>
      <point x="440" y="581"/>
      <point x="431" y="590"/>
      <point x="417" y="590" type="curve" smooth="yes"/>
      <point x="49" y="590" type="line" smooth="yes"/>
      <point x="36" y="590"/>
      <point x="27" y="581"/>
      <point x="27" y="567" type="curve" smooth="yes"/>
      <point x="27" y="552" type="line" smooth="yes"/>
      <point x="27" y="539"/>
      <point x="36" y="530"/>
      <point x="49" y="530" type="curve"/>
    </contour>
    <contour>
      <point x="390" y="0" type="line" smooth="yes"/>
      <point x="536" y="0"/>
      <point x="600" y="111"/>
      <point x="600" y="214" type="curve" smooth="yes"/>
      <point x="600" y="350"/>
      <point x="524" y="423"/>
      <point x="390" y="423" type="curve" smooth="yes"/>
      <point x="217" y="423" type="line"/>
      <point x="217" y="678" type="line" smooth="yes"/>
      <point x="217" y="691"/>
      <point x="208" y="700"/>
      <point x="194" y="700" type="curve" smooth="yes"/>
      <point x="176" y="700" type="line"/>
      <point x="163" y="700"/>
      <point x="154" y="691"/>
      <point x="154" y="678" type="curve" smooth="yes"/>
      <point x="154" y="22" type="line" smooth="yes"/>
      <point x="154" y="9"/>
      <point x="163" y="0"/>
      <point x="176" y="0" type="curve" smooth="yes"/>
    </contour>
    <contour>
      <point x="217" y="363" type="line"/>
      <point x="380" y="363" type="line"/>
      <point x="487" y="363"/>
      <point x="537" y="314"/>
      <point x="537" y="217" type="curve" smooth="yes"/>
      <point x="537" y="122"/>
      <point x="479" y="60"/>
      <point x="380" y="60" type="curve" smooth="yes"/>
      <point x="217" y="60" type="line"/>
    </contour>
  </outline>
</glyph>
<glyph name="uni046A" format="1">
  <advance width="847"/>
  <unicode hex="046A"/>
  <outline>
    <contour>
      <point x="86" y="0" type="line" smooth="yes"/>
      <point x="94" y="0"/>
      <point x="102" y="5"/>
      <point x="105" y="13" type="curve" smooth="yes"/>
      <point x="176" y="201" type="line" smooth="yes"/>
      <point x="209" y="288"/>
      <point x="248" y="325"/>
      <point x="310" y="325" type="curve" smooth="yes"/>
      <point x="392" y="325" type="line"/>
      <point x="392" y="22" type="line" smooth="yes"/>
      <point x="392" y="9"/>
      <point x="401" y="0"/>
      <point x="415" y="0" type="curve" smooth="yes"/>
      <point x="433" y="0" type="line" smooth="yes"/>
      <point x="446" y="0"/>
      <point x="455" y="9"/>
      <point x="455" y="22" type="curve" smooth="yes"/>
      <point x="455" y="325" type="line"/>
      <point x="537" y="325" type="line" smooth="yes"/>
      <point x="599" y="325"/>
      <point x="638" y="288"/>
      <point x="671" y="201" type="curve" smooth="yes"/>
      <point x="742" y="13" type="line" smooth="yes"/>
      <point x="745" y="5"/>
      <point x="753" y="0"/>
      <point x="761" y="0" type="curve" smooth="yes"/>
      <point x="781" y="0" type="line" smooth="yes"/>
      <point x="798" y="0"/>
      <point x="809" y="17"/>
      <point x="802" y="35" type="curve" smooth="yes"/>
      <point x="731" y="223" type="line" smooth="yes"/>
      <point x="689" y="334"/>
      <point x="628" y="384"/>
      <point x="537" y="384" type="curve" smooth="yes"/>
      <point x="479" y="384" type="line"/>
      <point x="479" y="353" type="line"/>
      <point x="730" y="667" type="line" smooth="yes"/>
      <point x="733" y="671"/>
      <point x="734" y="675"/>
      <point x="734" y="680" type="curve" smooth="yes"/>
      <point x="734" y="691"/>
      <point x="725" y="700"/>
      <point x="714" y="700" type="curve" smooth="yes"/>
      <point x="134" y="700" type="line" smooth="yes"/>
      <point x="123" y="700"/>
      <point x="114" y="691"/>
      <point x="114" y="680" type="curve" smooth="yes"/>
      <point x="114" y="675"/>
      <point x="115" y="671"/>
      <point x="118" y="667" type="curve" smooth="yes"/>
      <point x="371" y="353" type="line"/>
      <point x="371" y="384" type="line"/>
      <point x="310" y="384" type="line" smooth="yes"/>
      <point x="219" y="384"/>
      <point x="158" y="334"/>
      <point x="116" y="223" type="curve" smooth="yes"/>
      <point x="45" y="35" type="line" smooth="yes"/>
      <point x="38" y="17"/>
      <point x="49" y="0"/>
      <point x="66" y="0" type="curve" smooth="yes"/>
    </contour>
    <contour>
      <point x="215" y="640" type="line"/>
      <point x="633" y="640" type="line"/>
      <point x="424" y="390" type="line"/>
    </contour>
  </outline>
</glyph>
<glyph name="uni0472" format="1">
  <advance width="662"/>
  <unicode hex="0472"/>
  <outline>
    <contour>
      <point x="573" y="325" type="line"/>
      <point x="573" y="385" type="line"/>
      <point x="107" y="385" type="line"/>
      <point x="107" y="325" type="line"/>
    </contour>
    <component base="O"/>
  </outline>
</glyph>
<glyph name="uni0474" format="1">
  <advance width="644"/>
  <unicode hex="0474"/>
  <outline>
    <contour>
      <point x="333" y="0" type="line" smooth="yes"/>
      <point x="351" y="0"/>
      <point x="361" y="8"/>
      <point x="367" y="24" type="curve" smooth="yes"/>
      <point x="521" y="511" type="line" smooth="yes"/>
      <point x="555" y="618"/>
      <point x="577" y="650"/>
      <point x="623" y="650" type="curve" smooth="yes"/>
      <point x="626" y="650" type="line" smooth="yes"/>
      <point x="636" y="650"/>
      <point x="644" y="660"/>
      <point x="644" y="672" type="curve" smooth="yes"/>
      <point x="644" y="688" type="line" smooth="yes"/>
      <point x="644" y="704"/>
      <point x="639" y="710"/>
      <point x="629" y="710" type="curve" smooth="yes"/>
      <point x="623" y="710" type="line" smooth="yes"/>
      <point x="544" y="710"/>
      <point x="504" y="658"/>
      <point x="463" y="527" type="curve" smooth="yes"/>
      <point x="320" y="72" type="line"/>
      <point x="101" y="681" type="line" smooth="yes"/>
      <point x="97" y="691"/>
      <point x="91" y="700"/>
      <point x="78" y="700" type="curve" smooth="yes"/>
      <point x="57" y="700" type="line" smooth="yes"/>
      <point x="41" y="700"/>
      <point x="34" y="683"/>
      <point x="39" y="669" type="curve" smooth="yes"/>
      <point x="271" y="24" type="line" smooth="yes"/>
      <point x="277" y="8"/>
      <point x="287" y="0"/>
      <point x="305" y="0" type="curve" smooth="yes"/>
    </contour>
  </outline>
</glyph>
<glyph name="ellipsis" format="1">
  <advance width="564"/>
  <unicode hex="2026"/>
  <outline>
    <contour>
      <point x="143" y="0" type="line" smooth="yes"/>
      <point x="156" y="0"/>
      <point x="166" y="9"/>
      <point x="166" y="22" type="curve" smooth="yes"/>
      <point x="166" y="70" type="line" name="hr00" smooth="yes"/>
      <point x="166" y="83"/>
      <point x="156" y="93"/>
      <point x="143" y="93" type="curve" smooth="yes"/>
      <point x="95" y="93" type="line" smooth="yes"/>
      <point x="82" y="93"/>
      <point x="73" y="83"/>
      <point x="73" y="70" type="curve" smooth="yes"/>
      <point x="73" y="22" type="line" smooth="yes"/>
      <point x="73" y="9"/>
      <point x="82" y="0"/>
      <point x="95" y="0" type="curve" smooth="yes"/>
    </contour>
    <contour>
      <point x="306" y="0" type="line" smooth="yes"/>
      <point x="319" y="0"/>
      <point x="329" y="9"/>
      <point x="329" y="22" type="curve" smooth="yes"/>
      <point x="329" y="70" type="line" name="hr00" smooth="yes"/>
      <point x="329" y="83"/>
      <point x="319" y="93"/>
      <point x="306" y="93" type="curve" smooth="yes"/>
      <point x="258" y="93" type="line" smooth="yes"/>
      <point x="245" y="93"/>
      <point x="236" y="83"/>
      <point x="236" y="70" type="curve" smooth="yes"/>
      <point x="236" y="22" type="line" smooth="yes"/>
      <point x="236" y="9"/>
      <point x="245" y="0"/>
      <point x="258" y="0" type="curve" smooth="yes"/>
    </contour>
    <contour>
      <point x="469" y="0" type="line" smooth="yes"/>
      <point x="482" y="0"/>
      <point x="492" y="9"/>
      <point x="492" y="22" type="curve" smooth="yes"/>
      <point x="492" y="70" type="line" name="hr00" smooth="yes"/>
      <point x="492" y="83"/>
      <point x="482" y="93"/>
      <point x="469" y="93" type="curve" smooth="yes"/>
      <point x="421" y="93" type="line" smooth="yes"/>
      <point x="408" y="93"/>
      <point x="399" y="83"/>
      <point x="399" y="70" type="curve" smooth="yes"/>
      <point x="399" y="22" type="line" smooth="yes"/>
      <point x="399" y="9"/>
      <point x="408" y="0"/>
      <point x="421" y="0" type="curve" smooth="yes"/>
    </contour>
  </outline>
</glyph>
<glyph name="acutecomb.case" format="1">
  <advance width="376"/>
  <outline>
    <component base="uniF6C9" xOffset="30"/>
    <contour>
      <point x="188" y="880" type="move" name="top"/>
    </contour>
    <contour>
      <point x="128" y="700" type="move" name="_top"/>
    </contour>
  </outline>
</glyph>
<glyph name="brevecombcy.case" format="1">
  <advance width="370"/>
  <outline>
    <contour>
      <point x="302" y="740"/>
      <point x="330" y="799"/>
      <point x="330" y="856" type="curve" smooth="yes"/>
      <point x="330" y="866"/>
      <point x="323" y="875"/>
      <point x="311" y="875" type="curve" smooth="yes"/>
      <point x="296" y="875" type="line" smooth="yes"/>
      <point x="284" y="875"/>
      <point x="277" y="866"/>
      <point x="277" y="856" type="curve" smooth="yes"/>
      <point x="277" y="824"/>
      <point x="260" y="790"/>
      <point x="185" y="790" type="curve" smooth="yes"/>
      <point x="110" y="790"/>
      <point x="93" y="824"/>
      <point x="93" y="856" type="curve" smooth="yes"/>
      <point x="93" y="866"/>
      <point x="86" y="875"/>
      <point x="74" y="875" type="curve" smooth="yes"/>
      <point x="59" y="875" type="line" smooth="yes"/>
      <point x="47" y="875"/>
      <point x="40" y="866"/>
      <point x="40" y="856" type="curve" smooth="yes"/>
      <point x="40" y="799"/>
      <point x="68" y="740"/>
      <point x="185" y="740" type="curve" smooth="yes"/>
    </contour>
    <contour>
      <point x="185" y="700" type="move" name="_top"/>
    </contour>
  </outline>
</glyph>
<glyph name="brevecombcy" format="1">
  <advance width="410"/>
  <outline>
    <contour>
      <point x="317" y="590"/>
      <point x="345" y="649"/>
      <point x="345" y="706" type="curve" smooth="yes"/>
      <point x="345" y="716"/>
      <point x="338" y="725"/>
      <point x="326" y="725" type="curve" smooth="yes"/>
      <point x="311" y="725" type="line" smooth="yes"/>
      <point x="299" y="725"/>
      <point x="292" y="716"/>
      <point x="292" y="706" type="curve" smooth="yes"/>
      <point x="292" y="674"/>
      <point x="275" y="640"/>
      <point x="205" y="640" type="curve" smooth="yes"/>
      <point x="135" y="640"/>
      <point x="118" y="674"/>
      <point x="118" y="706" type="curve" smooth="yes"/>
      <point x="118" y="716"/>
      <point x="111" y="725"/>
      <point x="99" y="725" type="curve" smooth="yes"/>
      <point x="84" y="725" type="line" smooth="yes"/>
      <point x="72" y="725"/>
      <point x="65" y="716"/>
      <point x="65" y="706" type="curve" smooth="yes"/>
      <point x="65" y="649"/>
      <point x="93" y="590"/>
      <point x="205" y="590" type="curve" smooth="yes"/>
    </contour>
    <contour>
      <point x="205" y="520" type="move" name="_top"/>
    </contour>
  </outline>
</glyph>
